<?xml version="1.0" encoding="UTF-8" standalone="no"?>
<!-- Created with Inkscape (http://www.inkscape.org/) -->

<svg
   xmlns:dc="http://purl.org/dc/elements/1.1/"
   xmlns:cc="http://creativecommons.org/ns#"
   xmlns:rdf="http://www.w3.org/1999/02/22-rdf-syntax-ns#"
   xmlns:svg="http://www.w3.org/2000/svg"
   xmlns="http://www.w3.org/2000/svg"
   xmlns:sodipodi="http://sodipodi.sourceforge.net/DTD/sodipodi-0.dtd"
   xmlns:inkscape="http://www.inkscape.org/namespaces/inkscape"
   width="256px"
   height="256px"
   viewBox="0 0 256 256"
   version="1.1"
   id="SVGRoot"
   inkscape:version="0.92.5 (2060ec1f9f, 2020-04-08)"
   sodipodi:docname="soaring logo.svg"
   inkscape:export-filename="/home/kb1rd/Documents/School/Misc/soaring logo.png"
   inkscape:export-xdpi="399.96674"
   inkscape:export-ydpi="399.96674">
  <defs
     id="defs1727" />
  <sodipodi:namedview
     id="base"
     pagecolor="#ffffff"
     bordercolor="#666666"
     borderopacity="1.0"
     inkscape:pageopacity="0.0"
     inkscape:pageshadow="2"
     inkscape:zoom="2"
     inkscape:cx="40.300005"
     inkscape:cy="139.04779"
     inkscape:document-units="px"
     inkscape:current-layer="layer1"
     showgrid="false"
     inkscape:window-width="1624"
     inkscape:window-height="986"
     inkscape:window-x="56"
     inkscape:window-y="27"
     inkscape:window-maximized="1"
     inkscape:grid-bbox="true" />
  <metadata
     id="metadata1730">
    <rdf:RDF>
      <cc:Work
         rdf:about="">
        <dc:format>image/svg+xml</dc:format>
        <dc:type
           rdf:resource="http://purl.org/dc/dcmitype/StillImage" />
        <dc:title></dc:title>
      </cc:Work>
    </rdf:RDF>
  </metadata>
  <g
     inkscape:label="Layer 1"
     inkscape:groupmode="layer"
     id="layer1">
    <path
       style="fill:#ffffff;fill-opacity:1;stroke:none;stroke-width:2.87689066;stroke-miterlimit:4;stroke-dasharray:none;stroke-opacity:1"
       d="M 123.96171,247.02166 C 112.44894,244.60139 100.45812,239.76752 90.234,233.42497 78.357,226.05704 66.41846,214.52135 58.56622,202.82575 48.42371,187.71891 42.49613,170.88664 40.85359,152.52798 40.61011,149.80654 40.47388,123.51328 40.47307,79.082654 l -10e-4,-69.2063087 h 87.72893 87.72891 l -0.003,68.8377087 c -0.001,41.903586 -0.1448,70.496306 -0.36516,73.076716 -2.03319,23.80767 -11.43476,45.48486 -27.33752,63.0321 -14.59039,16.09936 -34.84477,27.71316 -56.15251,32.1978 l -4.0547,0.85339 z"
       id="path1982-2"
       inkscape:connector-curvature="0"
       sodipodi:nodetypes="ccscsccccccccc" />
    <path
       style="fill:#fdb913;fill-opacity:1;stroke-width:0.44817761"
       d="m 121.51197,209.98742 c -8.20799,-2.95095 -11.34907,-4.22656 -16.78963,-6.8184 -25.017492,-11.91809 -37.736037,-25.99109 -49.83639,-55.14376 -1.679517,-4.04638 -2.957819,-7.44804 -2.840672,-7.55926 0.117124,-0.11118 6.599667,4.3137 14.405612,9.83322 7.805916,5.51951 14.244878,9.90219 14.308831,9.73928 0.06391,-0.16291 -3.923951,-9.60948 -8.861952,-20.99238 -4.938,-11.38289 -8.922856,-20.73872 -8.855247,-20.79068 0.06767,-0.052 7.982854,7.06688 17.589388,15.81971 9.60654,8.75283 17.51935,15.75201 17.58402,15.55375 0.0647,-0.19829 -2.96688,-13.03492 -6.73682,-28.52584 -3.76996,-15.49094 -6.818836,-28.196905 -6.775281,-28.235495 0.04365,-0.0386 7.418911,11.601775 16.389721,25.867475 8.97079,14.2657 16.44456,25.79256 16.60838,25.61525 0.16374,-0.17731 2.40582,-14.96307 4.9823,-32.85721 2.57648,-17.894155 4.81561,-33.222655 4.97588,-34.063305 0.19682,-1.03259 1.88722,9.46854 5.21015,32.366925 2.70535,18.64247 5.01178,34.16027 5.12542,34.48402 0.11368,0.32373 7.59124,-11.0971 16.61684,-25.37959 9.02556,-14.2825 16.41024,-25.804435 16.41039,-25.604285 2.8e-4,0.4351 -13.27575,55.278025 -13.58452,56.117215 -0.11786,0.3203 -0.0275,0.51683 0.20085,0.4367 0.22832,-0.0801 7.00694,-6.14037 15.06357,-13.46726 8.05666,-7.32689 15.93989,-14.47863 17.51831,-15.89281 l 2.86984,-2.57117 -2.72496,6.28519 c -1.49873,3.45685 -5.6289,12.95729 -9.17815,21.11208 -3.54924,8.15477 -6.37567,14.90049 -6.28087,14.99046 0.0947,0.09 6.65619,-4.4559 14.58096,-10.10193 7.92477,-5.64603 14.45867,-10.21806 14.51974,-10.16005 0.16342,0.15514 -3.61263,9.39728 -6.08523,14.89378 -13.13367,29.19537 -30.03333,43.45219 -66.52159,56.11871 l -3.51644,1.22071 z"
       id="path2079-2-0-6"
       inkscape:connector-curvature="0"
       sodipodi:nodetypes="scssccscscccscscscscccsscsccsscccs" />
    <g
       style="stroke-width:0.32354107;stroke-miterlimit:4;stroke-dasharray:none"
       id="g938"
       transform="matrix(0.43155836,0,0,0.42964344,244.39732,-35.481385)">
      <path
         style="fill:#ffffff;fill-opacity:1;stroke:#1c2c3d;stroke-width:0.97062314;stroke-miterlimit:4;stroke-dasharray:none;stroke-opacity:1"
         d="m -282.59417,404.54931 c -15.34148,-3.33998 -21.09918,13.48086 -31.23004,19.76125 -9.04094,11.26025 -25.03506,0.15081 -34.31366,8.35065 -12.28054,-3.0253 -28.79553,-2.07769 -37.7197,-1.90081 -16.19595,-8.68748 -38.62,-10.85421 -53.3794,-0.09 -7.14538,10.3445 -28.66151,8.60206 -30.9347,19.67296 7.6419,58.94434 37.87602,114.18565 82.74414,152.85431 31.87096,27.96515 71.44034,47.34717 113.03339,55.17845 25.65479,-0.12847 50.00925,-11.19532 72.96387,-21.74291 77.38147,-38.14295 131.669701,-120.41779 134.536748,-207.13153 -12.953487,-1.18806 -32.557854,6.24787 -38.498418,-9.9656 -8.43769,-17.25738 -30.24204,0.79631 -44.71595,-5.58802 -17.9336,-0.53176 -34.15787,-6.389 -51.13498,2.52698 -15.83224,-5.07307 -34.69134,-15.24676 -51.94857,-4.98798 -10.80097,-0.59196 -19.45829,-3.01326 -29.40273,-6.93774 z"
         id="path2200-9-2"
         inkscape:connector-curvature="0" />
      <path
         style="fill:#2e4966;fill-opacity:1;stroke:none;stroke-width:0.97062314;stroke-miterlimit:4;stroke-dasharray:none;stroke-opacity:1"
         d="m -284.45435,413.41724 c -1.49956,4.80738 3.66335,0.33139 0,0 z m 32.48583,0.70917 c -3.73723,0.16791 -3.91669,6.02078 -8.67132,5.75061 -0.87622,-1.99373 -1.31185,-2.81303 -2.89648,2.20475 -1.50325,3.07546 -4.91227,0.52753 -7.35889,2.31844 -0.9858,0.95135 -4.05987,-4.07713 -6.55779,-0.14093 -2.42619,4.0926 -6.91863,-2.22985 -8.87954,2.20476 -2.75757,2.73741 -6.12455,0.18003 -9.1782,4.16408 -1.34098,0.62645 -6.5131,5.51145 -7.31362,3.03665 3.20745,-5.7095 -1.33539,-3.18533 -1.15859,-7.67804 0.47299,-3.32238 -4.91539,0.79008 -7.37698,-0.40459 -0.14325,-1.50331 -0.52047,-2.14417 -1.03187,-2.27298 -0.47099,0.3495 -0.94481,0.69644 -1.43466,1.00011 -1.33866,1.66729 -2.84059,2.8014 -4.43975,3.6231 -1.96376,1.57277 -4.83214,5.75871 -3.47577,1.4729 -0.0695,-0.0578 -0.15727,-0.0923 -0.23082,-0.14547 -2.3863,0.50858 -4.91215,0.54016 -7.46749,0.4364 -0.10791,0.10248 -0.23622,0.19226 -0.32587,0.30456 -0.23225,3.17407 0.47584,6.29901 2.73356,8.97821 -2.13677,-1.12712 -6.89392,1.78744 -3.67491,4.21862 -2.85702,0.99047 -3.72819,5.64007 -6.04188,5.90515 -4.74969,0.63813 -3.21636,-5.37052 -2.3217,-7.95083 1.23108,-2.76138 2.33422,-10.45692 -2.75165,-9.47823 -4.09345,0.77523 -6.8633,-0.0961 -7.00134,4.76411 -4.30072,-3.21129 -3.98354,1.06775 -1.48444,3.70494 0.59391,0.0692 -3.85459,7.50967 -3.58892,7.47347 -2.99059,-4.00765 -0.57807,-8.57129 -0.57025,-11.44207 -4.67719,-1.00343 -2.48866,9.08624 -4.88328,1.25467 3.03547,-4.89773 -2.69641,0.77751 -4.97833,-2.05021 -4.28917,-0.32492 0.9843,-4.8864 -3.60249,-1.41831 -4.60751,3.3299 -5.69674,-0.17187 -9.06508,-1.732 -1.27949,3.25128 -6.9886,2.96795 -9.56743,4.07768 -4.36247,-3.62405 -1.24934,0.80807 -4.66152,2.90939 -4.81808,-1.17958 -4.26451,7.75592 -7.25025,3.47309 -1.94893,-1.82421 -3.17989,-3.77413 -0.0272,-4.66412 2.31457,5.39987 0.74616,-3.82641 -1.8284,-0.85918 0.15585,-5.53759 -4.42223,3.8542 -2.90101,-1.00464 -4.20564,-3.24574 -3.13158,-3.36237 -8.41789,-2.66391 -2.4307,2.01271 -4.27754,3.18364 -5.60288,-0.50007 -2.37024,1.75092 -3.20569,7.12535 -7.37245,4.4141 -1.56651,-4.05201 -4.30079,-5.23399 -6.42203,-1.99111 -3.62055,-0.22845 -3.93456,-0.16719 -5.7296,-2.48662 2.2413,4.23877 -3.04171,5.55263 -5.85632,5.48692 -3.15392,1.25732 -8.47388,3.41211 -3.81068,-1.1183 0.44206,-0.59507 0.67925,-1.02252 0.77842,-1.33194 -1.44877,0.76491 -2.99177,1.43859 -4.5891,2.05021 -0.41576,0.53628 -0.53523,1.00567 -0.0407,1.22739 2.12624,3.15299 -5.33217,1.36208 -6.68,1.71382 -2.33728,-1.33322 -2.45717,5.58239 -5.53499,3.13669 0.0293,1.63331 -1.9692,1.01259 -4.14559,0.88643 -1.58636,1.255 -2.77116,2.76253 -3.33095,4.68231 0.17975,1.67785 0.38645,3.38254 0.6155,5.12781 -0.003,-0.1846 0.10857,-0.42 0.52046,-0.73645 1.41946,1.11252 -0.22635,1.38089 -0.50236,0.88191 0.37603,2.85042 0.79788,5.74644 1.30794,8.67362 1.04905,5.55833 2.30101,11.07127 3.7428,16.53352 1.32599,4.63871 2.83753,8.9791 4.58458,12.65128 -0.17085,0.66904 -0.23079,1.37267 -0.1946,2.09113 0.62055,1.86038 1.26718,3.71059 1.93249,5.55512 0.73292,1.1156 1.55622,2.01776 2.33529,2.38661 -0.61162,0.33546 -0.79602,1.07384 -0.72412,1.96383 0.53292,1.39386 1.07551,2.78485 1.63379,4.16862 0.85008,1.24245 1.79875,1.99978 2.29003,1.20921 -0.28862,1.54305 -0.13051,3.22149 0.31228,4.98232 1.76265,4.04619 3.63959,8.04221 5.61645,11.98759 1.95481,3.38702 3.89787,6.72921 5.16841,9.7601 0.4311,0.7724 0.85051,1.55068 1.28984,2.31843 6.20546,10.84425 13.24162,21.20996 21.00853,30.99407 2.04201,-4.64815 8.83863,3.777 9.46787,-1.48651 1.36265,-5.13114 5.08582,-0.0994 6.76147,-2.27751 5.08608,-3.2403 6.32631,5.8248 7.76166,-1.16376 3.24484,4.07605 2.13088,1.51756 5.97398,-0.56368 3.52247,2.13317 9.27025,4.06507 12.89386,2.45934 0.23096,-5.39459 4.0494,4.63136 7.13259,0.22275 2.828,0.76058 6.74286,-0.10947 9.05602,2.98666 2.61622,-0.38502 8.55619,-2.14247 8.6125,1.53199 4.03412,-1.14572 8.50844,-1.73742 12.54991,0.75007 4.02861,-0.99567 6.55691,-4.05118 10.99304,-4.25498 3.43854,2.59828 2.02972,8.41782 9.13749,6.20517 0.46622,3.8714 -0.002,8.43747 3.84687,9.27823 -6.15448,2.73043 3.66039,3.15399 2.70189,-1.61834 3.28687,0.18643 6.82345,1.30017 9.60363,3.77311 1.60236,1.77139 7.12437,6.27923 8.22781,1.95476 4.9455,-2.73576 3.45529,2.62454 1.51162,5.40964 0.50424,8.57409 1.43253,-2.13581 5.20912,-3.16397 -1.73559,-5.66388 6.24831,2.55761 5.42186,-1.50015 4.6251,-1.24852 -1.35351,-9.83867 4.71582,-8.65089 6.8191,0.56356 0.57366,-3.81891 3.48483,-6.73252 0.47521,-5.74639 4.49782,-5.9223 5.66172,-0.44094 3.18427,2.55884 1.24398,6.73933 4.39449,6.44611 0.83006,5.59613 1.97176,8.82024 7.01038,10.00104 2.03414,4.10182 0.0252,9.28628 1.1224,13.21044 1.66017,-3.93869 0.2444,-10.97531 0.72864,-16.09712 1.02322,-5.75928 -1.95946,-11.3978 -0.26249,-16.85171 1.89374,0.18557 1.37393,1.9241 5.73413,2.07292 4.73504,-0.55071 4.04543,1.19788 1.83293,-2.45024 4.08613,0.0642 7.19217,2.0656 11.03378,1.25467 3.20849,5.87106 0.99415,13.28634 1.90533,19.77021 2.66008,-0.0278 8.97337,4.89618 7.11447,-0.88646 -4.73864,-2.25324 2.89903,-4.14036 5.20463,-4.47773 2.77538,3.88096 6.27241,-0.11247 9.68057,-1.21829 2.81299,-5.65432 8.73061,-1.21699 12.59968,-0.16365 4.33854,3.55823 6.69935,-1.18242 2.57064,-0.41823 1.27369,-3.60618 5.86463,-2.39815 7.2774,-6.39612 5.19545,-1.76781 4.29731,5.0528 4.36735,7.73262 -0.53434,4.7178 1.12328,7.01021 1.05903,10.71929 -2.27045,-1.07413 -0.27637,3.60433 0.44351,4.6641 -2.17623,3.99715 4.45624,-0.56377 2.54799,-2.16841 0.5964,-2.77229 -1.69854,-6.01719 0.44805,-8.64633 -1.17182,-2.82899 0.8512,-5.37962 -0.32132,-8.15085 -0.4404,-2.76534 0.81301,-5.87652 -0.55214,-8.12355 1.93705,-2.59629 -1.04366,-6.31286 1.16311,-7.90081 1.7035,-4.56595 6.54558,-4.41454 5.51237,-4.18226 4.34537,1.95302 -0.1727,-3.48624 3.16349,-2.79573 0.62096,0.74168 5.66674,-1.09708 3.17709,-4.10043 2.55827,0.6117 2.04471,-1.44654 3.16803,-4.31862 1.0657,0.36272 10.0475,-1.16718 7.7707,3.35943 4.00558,0.27144 3.19721,5.53687 7.49011,5.5915 2.99017,2.30882 0.0246,7.52708 1.70621,11.14659 4.6043,-0.88939 3.7585,9.26378 4.09581,6.30065 1.8816,-2.10044 6.39534,-1.13322 8.45863,-2.87301 1.56878,1.85826 3.71525,2.31701 4.1139,-0.13186 2.70455,-0.54959 4.69851,-0.98251 6.25459,0.77737 3.63575,0.55464 3.74,-1.4853 6.75693,-3.8413 6.25413,-7.91478 12.04136,-16.19767 17.30195,-24.80709 0.42108,-0.69306 0.8347,-1.38945 1.2491,-2.08659 0.76982,-1.28772 1.525404,-2.58551 2.271931,-3.88675 0.792593,-1.3892 1.578257,-2.78264 2.344341,-4.1868 0.256072,-0.46685 0.507255,-0.93622 0.760338,-1.40468 11.058875,-20.57904 19.265575,-42.70604 24.081493,-65.57947 -5.292007,-3.00514 -0.958225,-6.30642 1.982282,-10.81474 1.179562,-7.45129 1.989927,-14.96792 2.412234,-22.52502 -0.451897,-1.90237 -1.692842,-2.14387 -4.498603,1.41377 -1.332173,-4.03094 -4.712735,-0.32631 -3.502933,-5.69148 -1.09487,3.16825 -4.910599,-0.51213 -6.87914,0.86371 0.102351,-2.61712 -1.687025,6.2881 -3.258539,-0.77736 -4.452932,-0.2038 -1.085392,3.74825 -1.488953,5.80514 -3.465325,0.0623 -2.588132,-1.80457 -4.394516,-2.02748 -3.762457,-0.37179 -4.181705,3.18388 -8.594388,2.48662 -2.675957,-3.5171 -1.814907,-8.51822 -5.186507,-7.69624 -2.69825,1.96137 -6.91663,1.88617 -10.35946,0.44551 -2.39098,0.66406 -8.82513,-2.20592 -8.39073,1.732 2.42605,-0.0415 1.41719,3.94401 5.39468,2.51389 -1.01492,5.17392 -5.21985,-0.66392 -6.87914,-0.95919 -0.44473,-7.49121 -0.38247,-0.88042 -2.41675,0.49551 -2.43691,-2.01153 -0.8061,-5.43432 -4.1682,-0.73645 3.92657,1.5993 -0.66338,8.10256 -4.93307,3.59582 -4.04249,-2.77989 3.24572,-5.99162 5.75222,-7.49168 5.77345,-0.77206 -1.8328,-2.85327 -3.72469,-2.40478 -3.49336,2.74942 -3.31357,4.67555 -2.93267,-0.56824 -3.34541,-1.89553 -3.55938,4.55619 -6.01019,0.0955 -0.41561,0.99333 2.88878,7.45134 -2.20406,3.82312 -3.08721,0.80572 -2.42366,-6.35105 -4.81539,-4.28225 3.48637,7.31095 -2.28921,-2.67957 -2.27645,-0.4455 -2.76908,5.9449 -2.10245,2.13558 -5.49427,-1.74108 -5.25222,2.14159 -2.92922,5.0379 0.44805,4.1186 -2.28845,4.25816 -6.33432,3.642 -8.6849,4.92323 -0.31286,-4.35015 -6.14174,-3.2328 -6.52614,0.49096 -2.88913,2.99365 -3.61571,-4.4296 -4.84708,-6.64614 -4.77157,0.86432 2.46256,-6.61744 -1.57043,-6.85524 -3.52073,2.00224 -1.47651,6.22155 -4.13654,9.26003 -2.72726,-3.56552 -2.96567,-3.57892 -6.22743,-4.23226 -2.77631,-3.28951 -4.85624,-5.39524 -6.64381,0.39552 0.48508,3.12177 -4.43453,5.65541 -5.96946,3.39579 -2.84941,-2.52567 -8.34158,2.1e-4 -8.25042,-4.3959 -0.34978,-7.61036 2.46736,4.66 2.31718,-1.62744 4.33837,-0.37126 5.12056,-7.4243 0.30775,-4.42318 -2.61036,1.45409 -5.29579,0.93112 -6.67097,5.25054 -2.92118,3.54896 -3.43747,-4.40831 -6.88365,-1.39106 -4.31789,-3.5631 -4.16479,3.85303 -7.71189,0.41369 -2.0838,0.29268 -6.69771,0.82701 -1.66094,3.17305 4.47238,1.60952 -0.24038,4.6644 5.40826,2.26385 -0.61507,-4.60179 5.88713,-0.72255 2.92816,1.24106 4.29701,-0.19868 2.52258,0.94508 5.7658,1.52286 4.82693,0.32404 2.44016,0.84515 2.66115,3.70494 4.17607,-3.62599 3.90065,3.28914 -0.62003,1.93655 -1.78366,1.37633 -8.23333,-2.84286 -6.43561,-5.43692 -1.66879,-0.51192 -4.85765,4.75185 -5.61646,7.34621 -1.08922,-1.22206 -0.63544,-9.87247 -7.05112,-6.28701 -3.91474,-1.09302 -4.70013,4.0367 -8.54462,0.86374 0.95925,-4.98876 -5.57493,-2.80805 -3.9374,-6.95982 -0.92741,1.4743 -10.25776,1.05097 -6.41297,-0.46368 5.99608,-2.38545 -2.66117,-6.40378 1.87817,-8.68271 -0.003,-0.90168 0.29465,-1.60838 -0.86894,-1.71836 z m -217.38532,40.81328 c -0.006,-0.0485 -0.0117,-0.097 -0.0181,-0.14546 7.8e-4,0.0533 -0.005,0.10324 0.0181,0.14546 z m 166.08595,-40.80872 c -0.14077,0.15692 -0.28508,0.30621 -0.42541,0.46367 0.23061,-0.092 0.3869,-0.24996 0.42541,-0.46367 z m 62.97128,0.0409 c -3.03681,1.31413 4.25933,2.88078 0.81465,0.42277 z m -40.4964,0.0409 c -6.16086,3.39009 1.05591,2.06253 0,0 z m 33.70777,0.5637 c -0.12166,-0.01 -0.26324,0.0175 -0.43448,0.0955 -0.40404,2.89065 -2.2348,6.76968 1.28986,7.01437 -0.70352,3.22998 7.95707,4.80098 1.57495,0.38185 1.40537,-0.51578 5.19712,0.27288 7.58968,-1.56835 3.60767,6.17298 2.82166,-4.09495 -2.70186,-2.08202 -2.49058,2.99027 -3.40825,-3.27963 -5.73865,-2.25478 -0.92972,0.39882 -0.7278,-1.51882 -1.5795,-1.58653 z m 5.28155,1.02283 c -1.15182,2.05077 1.78502,0.27746 0,0 z m 20.19843,0.39549 c -2.04943,0.32727 0.9709,2.19968 0,0 z m -83.69468,0.20003 c -0.54354,0.61176 -1.09089,1.22683 -1.63832,1.8229 0.37846,2.87415 5.43231,6.63523 3.0775,1.63201 -1.63063,-0.6798 -0.0412,-3.00801 -1.43918,-3.45491 z m 20.66003,0.991 c -6.21056,1.75504 -4.53144,4.22686 0.38922,1.1774 1.02433,-0.38039 0.604,-1.4402 -0.38922,-1.1774 z m 65.01239,0.26366 c -0.61716,3.64202 5.22474,2.62721 0,0 z m -48.89619,0.79555 c -3.0395,2.71132 3.53938,0.34233 0,0 z m 13.10657,0.25458 c 6.67759,1.14935 -5.48128,4.93353 0,0 z m 24.56124,0.40457 c -0.91559,3.07292 3.9403,0.19542 0,0 z m 42.74572,1.00465 c -5.35279,0.68982 1.82992,1.43691 2.05015,2.08205 0.32123,-0.87978 -1.57325,-1.15589 -2.05015,-2.08205 z m -105.84824,2.03657 c -1.34908,3.74066 -5.0728,1.63689 -7.35886,1.32286 -1.2365,2.73678 4.48757,3.26932 5.7658,2.42299 2.9574,0.64155 6.05645,-3.79345 1.59306,-3.74585 z m 35.2737,0 c 0.3872,1.41047 -4.00891,0.21432 0,0 z m 89.34282,0 c 2.00485,3.71904 6.09331,2.03189 0.52046,0 z m -22.52919,1.45925 c 2.56415,2.51265 -3.20024,2.74237 0,0 z m -82.50893,0.0864 c -0.13414,2.74192 -2.14025,1.50073 0,0 z m 61.59996,0.30912 c 4.0791,1.92268 -6.41855,2.91413 -0.14934,0.55006 z m -3.88309,0.991 c 2.40816,-0.008 -1.33428,4.66313 -0.57023,0.0682 0.21832,-0.0463 0.4097,-0.0676 0.57023,-0.0682 z m -60.07027,0.0682 c 1.00691,0.35879 -0.98907,1.01633 0,0 z m -37.62254,0.27276 c 3.58153,1.36178 -0.81843,2.5186 0,0 z m 94.21252,0.25456 c 2.55087,-0.15473 -0.52067,2.71015 0,0 z m -18.26592,0.22274 c -3.13598,2.06402 2.71335,5.46554 0,0 z m -30.41304,0.2773 c 1.44852,0.51236 -0.37895,1.05278 0,0 z m 94.5972,0.26823 c -0.0893,-0.0259 -0.22085,-0.0218 -0.40732,0.0273 -0.43426,1.81716 1.03291,0.15395 0.40732,-0.0273 z m -133.7902,0.1591 c 4.87167,-0.33897 1.20173,5.29132 0.5612,7.67807 -1.64307,5.45897 -1.23265,-3.44809 -2.11805,-5.00962 1.70023,-0.72039 0.20913,-1.29521 1.55685,-2.66845 z m 141.63333,0.34094 c -2.03678,2.76445 1.92278,2.19712 0,0 z m -117.73738,0.009 c 0.95209,0.12603 -0.71705,1.65388 -0.57929,0.0455 0.25602,-0.0524 0.4433,-0.0635 0.57929,-0.0455 z m 90.70055,0.20456 c 1.34371,0.87959 -0.63549,1.89965 0,0 z m -119.59293,0.0636 c 2.18756,0.4173 -0.58764,2.52819 0,0 z m 160.62337,0.0409 c 3.27842,0.52701 -1.84058,3.96198 0,0 z m 18.53295,0 c 2.58088,-0.0709 -1.00167,1.92357 0,0 z m -148.0961,0.24094 c 1.01813,0.12231 -0.91459,1.34565 -0.62906,0.0227 0.28109,-0.0383 0.48361,-0.0402 0.62906,-0.0227 z m 69.32996,0.53642 c 1.01643,0.21497 -1.03414,1.95627 -0.64265,0.0182 0.28629,-0.0467 0.49745,-0.0489 0.64265,-0.0182 z m 64.22491,1.09102 c 5.91464,5.10561 -3.34344,1.78625 0,0 z m -278.49652,0.17729 c -4.05714,4.60477 1.92886,1.86117 0,0 z m 245.63054,0.2182 c 2.41895,7.71119 -11.29715,1.2223 0,0 z m -29.62105,0.0864 c 1.45408,0.50984 -0.37971,1.05054 0,0 z m -227.28313,0.44548 c -0.35381,0.23794 -0.72249,0.44805 -1.06807,0.70007 -0.0116,0.0168 -0.0291,0.0288 -0.0407,0.0455 0.41958,0.98207 3.83184,0.0931 1.10881,-0.74555 z m 347.355795,0.0182 c -0.845609,0.62624 0.920965,0.70948 0.561199,0.0455 -0.186997,-0.0156 -0.375708,-0.0268 -0.561199,-0.0455 z m -241.982775,0.0182 c -2.95476,2.2353 3.76825,2.40355 0,0 z m 5.49427,0.0409 c 2.5407,0.54655 0.69414,4.37937 0,0.51368 z m 229.650102,0.19546 c -3.008792,2.37451 5.134625,1.39781 0,0 z m -215.199382,0.0727 c 0.99871,0.34454 -1.47658,3.28032 -0.66076,0.0364 0.30417,-0.0821 0.51807,-0.0856 0.66076,-0.0364 z m 103.82068,1.35924 c 4.0525,0.27483 -0.64645,3.58721 0,0 z m 68.32524,0 c 2.60836,0.15285 -2.12064,2.86766 0,0 z m -36.26935,0.52732 c 3.60647,1.01715 -2.65954,4.704 0,0 z m -162.75954,0.23638 c 1.82722,1.15403 -2.15106,1.76645 0,0 z m 182.8584,0.25003 c 4.02544,-0.0436 4.89806,2.64777 2.81049,4.48227 6.78446,4.65391 -1.60433,2.03606 -3.9872,0.53188 -7.62798,-1.54109 2.76185,-2.41665 -0.21724,-3.564 -0.85916,0.45906 -1.23112,-0.80862 -0.52498,-1.25467 0.70431,-0.12836 1.34385,-0.18925 1.91893,-0.19548 z m -228.10683,0.46368 c -2.7949,2.19508 2.26275,2.23483 0,0 z m 235.13079,0.15457 c 2.42107,1.76619 -5.83733,4.23761 0,0 z m -166.40729,0.20457 c 1.00552,0.37868 -1.85855,3.22749 -0.69245,0.0136 0.32455,-0.0716 0.54881,-0.0678 0.69245,-0.0136 z m 170.06409,0.52732 c 7.73511,1.39066 -1.19845,5.81692 -1.87819,1.53653 -0.19252,-1.67297 0.68672,-1.42097 1.87819,-1.53653 z m -23.64705,0.28184 c 2.49195,-0.28584 -1.17641,2.56575 0,0 z m 7.1145,0.48186 c 2.47846,0.92651 -1.02691,2.91135 0,0 z m -280.95854,0.0455 c -1.28643,2.39354 1.91164,0.64998 0,0 z m 364.037711,1.32287 c 1.528901,-0.0562 -0.381455,1.8415 0,0 z m -283.864061,0.4773 c 6.65753,2.10398 0.87689,8.2476 -0.0362,4.6823 1.90514,0.39132 -2.45497,-4.10233 0.0362,-4.6823 z m 268.811427,0.0136 c 2.756174,2.33105 -4.636685,2.1748 -0.04074,0.0273 z m -46.827947,0.0409 c 4.42181,0.4341 -0.35536,3.44692 0,0 z m -268.90192,0.4955 c 7.48006,2.53647 -6.08886,5.32497 0,0 z m 102.49917,0.0546 c 4.22564,2.84252 -5.82341,0.63264 0,0 z m -120.95518,0.11819 c 3.37862,1.86287 -2.24894,2.86416 0,0 z m 103.44054,0.0818 c 2.58138,0.32225 -0.55803,3.28282 0,0 z m 209.70964,0.0318 c 0.67696,0.14342 -0.6864,1.30052 -0.42541,0.009 0.19068,-0.0311 0.32871,-0.0296 0.42541,-0.009 z m -318.94766,0.009 c 2.74502,0.30174 4.635,2.30298 8.43147,3.13213 7.25646,1.39632 -0.94247,0.94546 -0.85084,4.14588 -1.47557,2.18153 -3.387,-1.08629 -5.10505,-3.17761 -1.45897,0.68808 -2.40034,-2.98759 -2.47558,-4.1004 z m 84.03864,0 c 2.55536,0.41476 -0.11369,3.59733 0,0 z m 263.905494,0.2 c 3.395647,2.61736 -1.314654,-0.13932 0,0 z m 7.825037,1.07738 c -0.353672,0.85327 -0.353695,-0.14691 0,0 z m -264.349021,0.57734 c 3.45754,0.86509 -4.14912,5.87306 0,0 z m 216.6114,0.27277 c 2.24857,1.50217 -2.50701,2.66495 0,0 z m -209.4019,0.47276 c -2.76331,0.48896 2.63019,2.30971 0,0 z m 8.23235,0.5728 c 4.53519,0.88059 -4.17445,5.76736 -0.23988,0.48186 z m 212.50203,0.28638 c 0.16594,0.099 0.0826,0.50723 -0.24891,0.0455 0.11081,-0.0806 0.1936,-0.0784 0.24891,-0.0455 z m -278.3879,0.0364 c 3.04223,0.0596 8.27679,6.4554 3.11825,3.11849 -3.62128,0.51885 -4.4154,2.36203 -3.69301,-3.04122 0.17956,-0.0571 0.37195,-0.0813 0.57476,-0.0773 z m 26.79244,0.45004 c 3.02853,2.19829 -4.75356,4.53565 -0.0996,0.0773 z m 263.15423,0.5546 c 3.03514,2.05426 -3.86319,3.28254 0,0 z m -343.20116,0.21821 c 3.78214,0.20398 4.40105,7.84764 0.81011,6.70977 -3.01825,-1.43852 -4.41042,-0.40524 -2.06374,-5.12325 0.13764,-0.61856 -0.33008,-1.30636 0.45257,-1.52289 0.27992,-0.0573 0.54892,-0.0772 0.80106,-0.0636 z m 321.93013,0.43187 c 0.12823,-0.007 0.47894,0.042 0.72866,0.0636 -0.80919,0.1333 -1.24586,-0.0336 -0.72866,-0.0636 z m 18.38361,0.0227 c -0.008,0.1654 -1.83619,0.93552 -0.77392,0.11819 0.57644,-0.16006 0.77649,-0.1733 0.77392,-0.11819 z m -257.95868,0.11819 c 3.25519,0.30025 -0.28089,3.87247 0,0 z m 17.18427,0.0227 c 3.27905,4.01303 -2.68953,1.16283 0,0 z m -111.84484,2.09567 c 4.51065,2.298 2.95881,3.53863 -0.96851,4.23226 -3.69661,-1.5724 -0.24041,-2.92084 0.96851,-4.23226 z m 11.57234,0.43187 c -1.70887,1.35445 1.05917,1.433 0,0 z m 318.59919,0.6137 c 0.15692,-0.0101 0.56055,0.0238 0.89156,0.0454 -0.90625,0.141 -1.47894,-0.008 -0.89156,-0.0454 z m -323.03442,1.86382 c 1.38033,3.77762 -1.90515,5.23457 0.60644,9.53279 -2.09882,3.29515 -1.06085,-4.98634 -5.42184,-4.4641 2.55232,-2.7088 1.60513,-2.35032 4.74298,-4.94596 z m 331.20339,0.66369 c -0.35712,0.64628 -0.35911,-0.20047 0,0 z m 0.53856,0 c 0.3591,-0.20044 0.35711,0.64628 0,0 z m -245.56716,0.89556 c 1.79961,-0.0504 -0.95474,2.86607 -1.0726,0.2273 0.46385,-0.15317 0.81551,-0.22011 1.0726,-0.2273 z m -96.56139,4.86869 c 4.73799,-0.0824 4.11781,5.74995 6.26364,5.64149 -0.53964,4.18884 0.22341,9.17554 -5.17746,7.04617 -1.11019,-3.83216 -2.87406,-7.05025 -3.38073,-8.53725 -4.87695,-1.58617 1.89559,-1.88081 2.29455,-4.15041 z m -3.94645,7.49621 c 1.79205,1.28572 -1.27389,1.5697 0,0 z m 2.08184,2.34569 c 1.90365,3.87533 -4.91985,1.12801 -0.95493,1.26377 l 0.47973,-0.63187 z m 0.6155,5.88698 c 1.54577,2.1458 -2.20391,1.59727 0,0 z m 7.55348,0.2773 c 6.89152,2.41034 -0.91405,5.67037 -0.52951,0.53188 z m -2.5842,3.17305 c 1.2742,6.27299 -7.43283,0.30171 -0.46163,0.20456 z m 1.94154,2.36389 c 0.23352,-0.005 0.52052,0.0125 0.86442,0.05 3.76567,4.41736 -4.36717,0.0221 -0.86442,-0.05 z m -6.96965,1.13193 c 4.15617,0.22147 0.73057,4.20207 0,0 z m 7.89291,1.56379 c 1.23663,3.54322 -2.88817,2.725 0,0 z m -6.83389,3.99587 c 2.42666,-0.32073 -0.38459,2.34315 0,0 z m 10.8437,0.99555 c 0.22559,0.1828 -7.37778,4.65532 0,0 z m 320.55431,1.28194 c 5.19156,1.17959 -2.29867,0.21611 0,0 z m -324.5958,2.78213 c -0.007,0.10227 -0.82462,1.08527 -1.88272,2.29113 1.0163,-1.5181 1.89282,-2.44168 1.88272,-2.29113 z m 15.555,40.79962 c 0.002,0.20626 -0.77472,0.0532 0,0 z m 17.32909,1.10466 h 0.005 v 0.92283 h -0.005 z m -8.23234,9.39188 c 0.20659,-0.002 0.22935,0.70253 0,0 z m 20.53785,10.8193 c 1.78187,0.53369 1.61189,4.48052 0,0 z m 243.2681,0.0545 c -0.25624,0.95258 -0.45952,0.49283 0,0 z m -2.99153,3.87314 c 0.18774,0.0838 -0.75429,0.72791 -0.15841,0.005 0.0807,-0.0165 0.1316,-0.0165 0.15841,-0.005 z m -0.5612,1.06828 c -0.0313,2.03129 -0.41436,2.18244 0,0 z m -243.22282,4.54137 c 5.16531,5.11201 -7.04698,3.05323 -1.37131,0.20913 0.45681,-0.0703 0.91438,-0.13958 1.37131,-0.20913 z m -1.45729,0.63644 c -2.43862,0.38574 2.34389,3.67493 1.52517,0.0409 -0.68046,-0.0921 -1.1768,-0.096 -1.52517,-0.0409 z m 74.435,0.15911 0.11767,0.67733 h -0.005 z m -73.57059,0.2773 c 1.52797,-0.0566 -0.38059,1.84648 0,0 z m 244.20943,0.52732 c -0.70479,4.65791 1.84203,1.92406 0,0 z m -220.43566,0.16364 c 4.11432,1.04361 -1.86721,2.54409 0,0 z m 209.76849,1.01375 c -0.23626,0.76114 -0.24871,-0.071 0,0 z m -198.19615,2.90485 c 3.43304,0.14952 -1.32184,3.37166 -2.00943,0.15455 0.86031,-0.13165 1.51899,-0.17591 2.00943,-0.15455 z m -21.53352,1.74107 c -5.18329,4.05821 9.02711,-0.26017 0,0 z m -4.15916,1.02739 c 0.55399,1.99731 2.28083,0.1916 0,0 z m -0.89157,0.0318 c -0.86328,3.37978 1.80901,-0.10102 0,0 z m 150.5762,0.0454 c -0.35256,0.85273 -0.35476,-0.14735 0,0 z m -18.8226,0.70463 c 1.3623,0.48208 -0.28666,0.24465 0,0 z m -129.32328,0.57278 c -3.50289,3.19568 5.21428,1.02062 0,0 z m 7.50822,0.0591 c -16.76661,3.71696 9.09816,2.64663 0,0 z m 127.74381,0.15911 c 0.42886,0.0362 -0.48603,0.26196 -0.94136,0.05 0.50946,-0.0534 0.79839,-0.0621 0.94136,-0.05 z m 0.74674,0.05 c 0.36618,-0.0941 0.51823,0.74018 0,0 z m 11.83937,0.22275 c 0.0889,0.16744 -1.50328,0.19109 0,0 z m -81.84819,1.37742 c 1.39594,1.32461 -1.39729,0.66024 0,0 z m -78.50817,0.50914 c -0.30433,2.25587 1.50925,-0.32939 0,0 z m 6.99228,0.52278 c -0.22022,-0.0174 -0.47633,0.0456 -0.68791,0.009 -3.14268,3.79366 1.8225,5.95941 1.15859,0.46369 -0.067,-0.35625 -0.25045,-0.45536 -0.47068,-0.47277 z m -4.45334,1.06375 c -0.0954,-0.0347 -0.2322,-0.0364 -0.42089,0.005 -0.26688,1.96695 1.08903,0.23824 0.42089,-0.005 z m 1.82388,0.14547 c -0.1078,0.007 -0.24781,0.0434 -0.42542,0.12273 0.3677,1.27033 1.18003,-0.16835 0.42542,-0.12273 z m 9.07865,0.0909 c -3.38231,1.84853 5.31615,1.75473 0.095,0.0409 z m 259.17157,0.33186 c -0.0814,1.20574 -1.00489,-0.137 0,0 z m -271.62643,0.7728 c -0.1779,0.0771 -0.2757,0.15941 -0.32585,0.24092 0.14291,0.17191 0.28204,0.34675 0.42542,0.51824 0.30922,0.066 0.55252,-0.0933 -0.0996,-0.75916 z m 267.3677,0.2091 c -3.54552,2.80284 0.42509,3.18218 2.29909,4.33227 -2.0898,1.74689 -1.12849,2.62771 0.61097,0.5637 -0.85541,-2.87224 -3.63249,-2.0646 -2.91006,-4.89597 z m -265.72485,0.30458 c -1.16014,3.74199 3.01311,0.0559 0,0 z m 275.74486,0.47733 c -2.55671,-0.23161 1.34717,0.83955 0,0 z m -13.42789,0.0409 c -0.14274,-0.0436 -0.34804,-0.046 -0.62909,0.0136 -0.37787,2.62676 1.62819,0.29159 0.62909,-0.0136 z m 1.20385,2.39115 c -5.85298,2.84683 6.66352,2.19647 0,0 z m -2.09543,2.60481 c -2.01496,0.37715 0.4429,1.66932 0,0 z m -242.4806,7.39167 c -2.9222,2.16242 -2.53844,5.5044 -0.80106,8.25994 1.44077,1.35943 2.89756,2.69956 4.37187,4.02315 2.80966,1.39709 5.76912,0.94601 6.62118,-3.45945 -1.70077,-4.14763 -5.70176,-8.03913 -10.19199,-8.82364 z m 252.27885,0.74098 c -0.44921,-0.0204 -1.05779,0.011 -1.86009,0.11365 0.35967,2.63628 5.00444,0.029 1.86009,-0.11365 z m -9.3502,2.76392 c -0.80404,2.59732 -0.9187,6.80672 -0.009,8.99183 0.47284,-2.11229 0.69186,-6.55248 0.009,-8.99183 z m 8.6306,0.36368 c -0.27298,0.002 -0.64496,0.0489 -1.14049,0.1591 0.069,1.99582 3.0514,-0.1754 1.14049,-0.1591 z m -5.81105,0.65461 c -0.14189,-0.0274 -0.34334,-0.0245 -0.62004,0.0318 -0.32514,2.00608 1.61318,0.15994 0.62004,-0.0318 z m 5.70245,2.4457 c -0.24261,0.008 -0.57833,0.0697 -1.03189,0.20459 -0.18744,2.25228 2.73003,-0.26329 1.03189,-0.20459 z m -6.17766,4.16408 c -0.8287,1.56083 1.94444,-0.0372 0,0 z m -58.2645,0.75917 c -0.25014,-0.0186 -0.54861,-0.006 -0.90516,0.0409 -2.50566,4.47462 3.86754,6.64803 1.18575,7.7917 -1.84666,1.92057 1.66443,2.15848 -0.96851,4.54593 1.18118,-0.19288 0.26766,7.35042 -2.44389,9.49643 -1.3984,3.06966 -2.01808,-5.46074 -6.04641,-3.27762 -6.80087,-3.67975 -1.83572,2.45496 -6.38132,1.93202 1.87933,2.09941 -5.34477,0.62896 -5.2046,4.14588 -7.0872,0.49275 2.1309,8.1319 -3.91931,7.67352 -0.0343,-6.05246 -5.3795,0.40103 -3.11371,3.72311 3.01961,-0.3724 6.94844,2.45893 8.789,-1.06376 4.52127,1.23467 4.05899,-6.44858 5.13674,0.75919 5.07905,-0.25035 5.21338,-2.90276 8.76637,-0.46825 2.33275,0.626 9.37606,2.24926 9.51312,-0.95919 0.52385,-3.61665 1.54698,0.59975 3.24045,1.93202 1.04088,-0.52258 2.07235,-1.06167 3.10465,-1.60017 0.20839,-0.37286 0.41835,-0.7786 0.63813,-1.28194 -0.83351,-4.91841 -4.86168,4.96572 -3.54364,-2.93211 -1.85584,-4.56067 0.45066,-3.09215 -0.11315,-7.81446 1.01047,-3.33099 -0.76701,-6.059 -4.24063,-6.33246 -7.44565,-0.2193 6.86519,-0.70844 4.24966,-4.40954 0.58041,-4.95178 -0.64095,-10.63409 -6.26814,-8.30086 -0.34436,-1.82951 0.27547,-3.47046 -1.4754,-3.60035 z m -173.25927,1.76381 c -2.30764,1.766 8.18617,-0.24809 0,0 z m 228.79021,0.16364 c -1.9053,5.04547 2.88253,-0.28521 0,0 z m -224.16036,3.67312 c -1.50631,0.5182 0.46224,1.70621 0,0 z m 160.49212,1.01829 c -0.21612,0.006 -0.67166,0.25651 -0.70148,0.0682 2.46829,5.32649 -4.84226,0.89979 -3.76996,6.16881 -3.69795,4.52552 5.46945,3.40883 7.22762,2.03658 -3.66326,-0.0194 -2.17913,-4.94475 -2.64303,-8.16903 0.005,-0.0785 -0.0411,-0.10639 -0.11315,-0.10455 z m 46.41157,0.33185 c -0.75246,2.92848 1.48235,-0.42491 0,0 z m -190.93232,3.44125 c -3.50395,2.71437 3.02428,2.80514 0,0 z m 190.34848,0 c -1.69685,3.0753 -8.17266,1.96561 -7.1733,4.80959 -1.04864,1.38036 -2.26663,7.34579 -0.26249,8.03264 1.78576,-1.16813 3.55998,-2.35211 5.31323,-3.56854 0.0983,-0.10965 0.17951,-0.18462 0.28059,-0.30004 -4.61922,-0.64477 -3.96973,-7.40861 0.64719,-4.20951 2.66545,2.64009 4.164,-5.2659 1.19478,-4.76414 z m -201.01568,0.44097 c -2.55756,0.36272 -2.17974,3.66977 -1.31699,4.95504 0.2207,0.16358 0.44402,0.32362 0.66529,0.48643 0.35404,0.0123 0.69285,-0.39133 0.89609,-1.51379 -1.04514,-1.49629 0.9198,-3.04574 -0.24439,-3.92768 z m 157.63638,0.52276 c -0.2436,-0.0143 -0.57392,0.0126 -1.01377,0.0955 0.10527,2.05656 2.71894,0.005 1.01377,-0.0955 z m -3.66133,0.0955 c 2.26312,-0.14447 -0.52408,2.51531 0,0 z m -145.65219,2.45026 c -4.43138,1.9006 3.22148,2.92961 0,0 z m 6.10071,2.23658 c -4.21832,-0.19121 -6.38786,1.92925 -0.33038,3.27762 1.43984,2.06334 4.56785,-2.20774 2.24477,-3.04578 -0.66816,-0.13062 -1.31178,-0.20452 -1.91439,-0.23184 z m 186.67358,1.10012 c -2.00624,1.24224 -1.18915,1.35777 -0.32586,1.10009 0.33008,-0.23379 0.66227,-0.46454 0.99115,-0.70006 -0.0215,-0.14775 -0.20203,-0.28992 -0.66529,-0.40003 z m -33.49055,5.19144 c 2.77735,-0.17971 -1.00809,2.5433 0,0 z m -139.40664,5.12325 c -3.43255,1.64681 -9.35869,0.64944 -10.56764,0.93645 1.72754,1.04217 3.46049,2.07442 5.21367,3.07306 0.14083,0.0637 0.19224,0.0928 0.33943,0.15909 1.79317,0.344 13.01151,-3.475 5.01454,-4.1686 z m 109.51861,0.26366 c -0.82898,1.56292 1.94536,-0.0362 0,0 z m 43.86808,2.69118 c -4.41279,0.28084 -6.74388,3.60662 -2.86028,1.67744 0.46443,-0.25616 0.92228,-0.5225 1.38489,-0.78188 0.47045,-0.27935 0.89114,-0.50851 1.47539,-0.89556 z m -23.57463,0.25913 c 3.0959,2.22922 -1.94194,4.55582 0,0 z m 5.22724,0.991 c 1.29047,0.17515 -1.10404,2.35901 -0.79653,0.0636 0.35342,-0.076 0.61218,-0.0887 0.79653,-0.0636 z m -13.33738,0.31822 c 0.67898,0.14319 -0.68649,1.30583 -0.42541,0.0136 0.19121,-0.0312 0.32841,-0.0341 0.42541,-0.0136 z m -7.38603,0.78644 c 2.06081,1.87186 -1.79285,1.66189 0,0 z m 22.73285,0.009 c 0.6769,0.1433 -0.68635,1.30166 -0.42543,0.009 0.19068,-0.0311 0.32871,-0.0296 0.42543,-0.009 z m -1.62928,5.3869 c -0.17168,-0.0293 -0.42201,-0.017 -0.77389,0.05 -0.71529,2.27091 1.97567,0.15494 0.77389,-0.05 z m -6.78863,0.0909 c -0.31298,-0.0202 -0.72644,-0.003 -1.2672,0.0591 0.59522,1.87523 3.45819,0.0823 1.2672,-0.0591 z m -62.94412,3.94585 c -4.05229,1.55813 -7.11092,-0.24437 -10.43184,1.08648 -1.87574,-0.21473 -12.02526,-1.14983 -7.92913,0.79098 1.0305,0.45745 2.43912,0.72928 3.9872,0.88192 -1.39077,-0.004 -2.73569,-0.0145 -4.15918,0 0.98895,-0.37468 -9.52923,0.52758 -6.70716,-0.90463 -0.78731,-2.05859 -9.0014,0.43138 -12.35529,-0.98647 -2.61807,0.41406 -9.60873,0.69455 -3.91477,1.92292 0.34047,0.54529 1.41286,1.17621 2.87839,1.85018 3.02916,1.17174 6.0782,2.2899 9.15107,3.33672 3.30548,1.06894 6.53818,2.08552 9.3185,2.98213 6.83646,2.01821 13.76275,3.70058 20.74603,5.08233 1.14452,0.16441 2.26826,0.2935 3.37168,0.38641 5.39119,-0.10408 10.72368,-0.68252 15.99854,-1.63198 4.91785,-1.05185 11.09029,-2.49605 14.84445,-3.82312 1.8537,-0.7142 6.74977,-2.14487 11.09262,-3.55493 2.3151,-0.85971 4.61631,-1.74409 6.90629,-2.67298 1.12472,-0.74578 0.53782,-1.21955 -3.29021,-1.13194 -0.32279,-0.18636 -0.7146,-0.28147 -1.15407,-0.31368 0.96005,-0.10651 1.9379,-0.13146 2.96889,-0.0136 2.39165,0.22207 3.80539,0.22805 4.6751,0.15003 0.31535,-0.13208 0.63553,-0.25339 0.95039,-0.38641 -0.20416,-0.21637 -1.02099,-0.45189 -2.18594,-0.62733 1.18886,0.008 2.37899,0.0177 3.57083,0.0545 0.38266,-0.16355 0.75855,-0.33535 1.1405,-0.50006 1.86616,-1.71591 -10.42323,-0.73966 -13.96648,-0.81372 -12.69249,-0.26083 -25.40774,0.0619 -38.08417,-0.71371 -4.50279,0.12228 0.84348,3.40447 -5.67529,1.9002 -3.36715,0.31659 -6.72537,0.39524 -10.13316,0.40913 1.6332,-0.12475 3.19605,-0.30504 4.43071,-0.57734 3.11457,-1.42255 11.88196,-0.26503 3.9555,-2.18204 z m -46.84604,0.85464 c -0.31852,-0.0476 -0.64505,-0.0521 -0.96849,0.009 0.0352,0.0202 0.0515,0.0258 0.086,0.0455 0.95371,0.41448 1.91043,0.82533 2.86933,1.22739 0.54738,-0.0495 -0.5777,-1.07131 -1.98683,-1.28195 z m 25.06361,0.0273 c -0.0945,-0.0183 -0.23206,-0.0147 -0.41637,0.0227 -0.21678,1.33652 1.07784,0.10532 0.41637,-0.0227 z m -5.05074,1.682 c 0.3613,0.56595 -9.40188,0.29608 0,0 z m 72.82385,0.13183 c -4.31627,0.43394 -13.74829,1.57675 -8.32738,0.93191 2.76296,-0.46087 5.54122,-0.73719 8.32738,-0.93191 z m -41.47398,0.0409 c 0.092,0.0132 0.20639,0.051 0.34848,0.12727 -0.49344,0.98279 -0.99268,-0.21964 -0.34848,-0.12727 z m -44.06722,0.13637 c 0.39624,-0.0339 1.14007,-0.0366 2.36244,0.0227 -1.60361,0.43229 -3.55116,0.079 -2.36244,-0.0227 z m 54.21848,0.16365 c 0.16188,-0.0404 1.05038,-0.0238 3.2178,0.11819 2.34726,0.64335 -3.70346,0.003 -3.2178,-0.11819 z m -17.5418,0.0909 c 0.40741,-0.0732 0.31771,0.86412 -0.20366,0.10458 0.0788,-0.0594 0.14545,-0.0941 0.20366,-0.10458 z m 25.27179,0.25005 c 3.89889,0.11453 3.12101,0.62042 0,0 z m -60.22868,0.31365 c 0.78277,0.0851 0.53295,0.39801 0,0 z m 81.12858,0.66372 c -2.0679,0.69034 -3.88376,1.36608 -4.18179,0.78188 1.50257,-0.15208 2.85917,-0.45782 4.18179,-0.78188 z m -5.75222,0.91827 c -2.21601,0.73112 -3.26051,0.62319 0,0 z"
         id="path2200-9-2-9"
         inkscape:connector-curvature="0" />
    </g>
    <path
       style="fill:#002145;fill-opacity:1;stroke:#ffffff;stroke-width:2.87689066;stroke-miterlimit:4;stroke-dasharray:none;stroke-opacity:1"
       d="M 123.96201,247.02166 C 112.44924,244.60139 100.45842,239.76752 90.2343,233.42497 78.357295,226.05704 66.418761,214.52135 58.566518,202.82575 48.424009,187.71891 42.49643,170.88664 40.853886,152.52798 40.610402,149.80654 40.474178,123.51328 40.47337,79.082655 L 40.47207,9.8763453 h 87.72893 87.72891 l -0.003,68.8377097 c -0.001,41.903585 -0.1448,70.496305 -0.36516,73.076715 -2.03319,23.80767 -11.43476,45.48486 -27.33752,63.0321 -14.59039,16.09936 -34.84477,27.71316 -56.15251,32.1978 l -4.0547,0.85339 z m 10.50333,-7.18254 c 7.62413,-1.90156 17.05529,-5.65531 23.97085,-9.54077 24.12637,-13.55524 41.48188,-36.32019 48.04966,-63.02601 2.79526,-11.36604 2.59103,-5.18918 2.71481,-82.107625 l 0.11103,-69.02201 H 128.20104 47.090371 l 0.107971,69.39062 0.10797,69.390615 0.831693,4.60762 c 4.600476,25.48655 16.746426,46.17304 36.387764,61.97419 8.791361,7.07252 19.037321,12.55555 30.589621,16.36976 10.68831,3.52896 12.38396,3.70103 19.34993,1.96361 z"
       id="path1982"
       inkscape:connector-curvature="0"
       sodipodi:nodetypes="ccscsccccccccccsssccccccsscc" />
    <path
       style="fill:#002145;fill-opacity:1;stroke-width:0.36860895"
       d="m 72.997487,76.050485 c -7.859554,-2.06417 -14.751274,-8.90331 -16.740299,-16.61255 -0.492067,-1.90762 -0.584294,-4.94555 -0.584294,-19.25982 v -16.99495 h 6.266327 6.266467 v 17.23246 17.23246 l 0.873795,1.84305 c 3.313787,6.98906 12.58838,8.40948 17.710637,2.71237 2.80069,-3.1152 2.78745,-3.01042 2.78745,-22.13 v -16.89034 h 6.26633 6.26632 v 16.87855 c 0,13.8296 -0.1003,17.27543 -0.55601,19.07552 -2.04154,8.065 -8.84926,14.83698 -17.006111,16.91674 -2.82632,0.72064 -8.807605,0.71883 -11.557996,-0.003 z m 105.514173,-0.8924 c -9.39747,-1.32577 -16.23304,-5.70398 -19.88593,-12.73701 -2.31558,-4.45837 -2.80375,-6.76576 -2.84234,-13.4353 -0.0293,-4.99803 0.0738,-6.05959 0.82322,-8.47799 1.97259,-6.36732 6.19779,-11.38196 11.92342,-14.1508 5.00398,-2.41983 8.09946,-3.19129 13.76004,-3.42937 3.64675,-0.15339 5.58256,-0.0523 8.10029,0.42306 3.70708,0.69987 8.99401,2.60115 9.27585,3.3358 0.14977,0.39011 -1.62123,10.41943 -1.90641,10.79644 -0.0446,0.0596 -1.05602,-0.47923 -2.24662,-1.19732 -3.78719,-2.28406 -6.36901,-2.96656 -11.19577,-2.95948 -4.7553,0.007 -6.2935,0.35851 -9.20243,2.10306 -5.20724,3.12295 -7.18638,9.20619 -5.89714,18.12548 0.6743,4.66518 3.62377,8.41916 8.35399,10.63271 5.33514,2.4966 13.09536,1.41809 19.13752,-2.65968 0.90863,-0.61328 1.78437,-1.11502 1.94584,-1.11502 0.16161,0 0.58248,2.11488 0.93523,4.69975 0.35289,2.58487 0.72097,5.04537 0.81821,5.46778 0.14782,0.64248 -0.18919,0.93224 -2.06244,1.77286 -5.32246,2.38861 -14.04369,3.62198 -19.83453,2.80503 z m -67.17881,-26.16335 v -25.89313 l 10.59755,0.19115 c 11.45629,0.20667 12.8457,0.39168 18.61272,2.47844 2.36211,0.85469 3.49907,1.49454 4.32272,2.43264 4.23787,4.82667 4.60915,12.63841 0.79201,16.66452 -0.53122,0.56033 -1.38063,1.30901 -1.88746,1.66369 -0.90069,0.63033 -0.90487,0.6544 -0.18432,1.06483 1.67542,0.95423 4.66196,4.19703 5.50315,5.97525 1.31376,2.77689 1.83425,6.23291 1.34148,8.90668 -0.85833,4.65673 -3.13267,7.5797 -7.58176,9.74356 -4.28816,2.0856 -5.55636,2.24955 -19.07552,2.46618 l -12.44057,0.19933 z m 21.56359,16.17158 c 2.05757,-0.56203 3.78022,-1.96807 4.67979,-3.81959 1.11035,-2.28546 0.71511,-3.86805 -1.52594,-6.10902 -2.21514,-2.21517 -4.40506,-2.93445 -8.9341,-2.93445 h -3.25068 v 6.63496 6.63496 l 3.77827,-0.003 c 2.07805,-0.001 4.44183,-0.18328 5.25266,-0.4048 z m 0.31861,-22.21791 c 0.669,-0.27954 1.59212,-0.9845 2.05144,-1.56659 0.69645,-0.88246 0.81083,-1.39926 0.68837,-3.1098 -0.29897,-4.17952 -2.26919,-5.50502 -8.18249,-5.50502 h -3.90686 v 5.34482 5.34483 h 4.06652 c 2.62208,0 4.49867,-0.18054 5.28302,-0.50824 z"
       id="path1982-7"
       inkscape:connector-curvature="0"
       sodipodi:nodetypes="ccscccccccscccsccccsccccccccccccccscccscccccccccccscccccscccccccccscccsc" />
    <g
       id="g991"
       transform="matrix(1.3931673,0,0,1.3931673,226.86328,-59.304285)"
       style="fill:#002145;fill-opacity:1;stroke:#fbfbfb;stroke-width:0.10037741;stroke-miterlimit:4;stroke-dasharray:none;stroke-opacity:1">
      <path
         id="path981"
         d="m -86.09893,177.61471 c 5.431701,-8.6363 6.047002,-9.56248 5.808801,-8.74431 l -0.1695,0.58225 1.931897,-0.5278 c 2.599703,-0.71023 6.865504,-2.83367 8.811104,-4.38595 l 1.5875,-1.2666 -0.7938,-0.17276 c -2.109499,-0.45911 -6.112103,-0.0781 -8.763601,0.83414 -0.793499,0.27299 -1.422799,0.37294 -1.422799,0.22599 0,-0.14494 1.331097,-4.85103 2.957898,-10.45796 2.456302,-8.4654 2.893801,-10.23503 2.579701,-10.43381 -0.4675,-0.29586 -0.807503,-0.30273 -1.244899,-0.0252 -0.185502,0.11779 -2.403004,5.38448 -4.9276,11.70378 l -4.590202,11.4896 -1.4224,1.01607 c -1.451,1.03654 -8.5428,4.67746 -12.1542,6.23996 l -2.000699,0.8656 -1.813101,-1.878 c -0.9971,-1.03289 -2.18348,-2.46136 -2.26868,-2.45981 -0.1574,0.003 -2.57043,3.81996 -2.63484,4.14937 -0.049,0.25263 1.95032,3.03541 2.15572,3.04179 0.9342,0.029 10.6233,-3.79102 15.243,-6.00968 1.4916,-0.71636 2.712,-1.21246 2.712,-1.10243 0,0.11002 -1.3693,3.39039 -3.0428,7.2897 -1.6734,3.89931 -3.0427,7.1821 -3.0427,7.2951 0,0.11302 0.4057,0.20546 0.9016,0.20546 0.8935,0 0.9437,-0.067 5.6026,-7.47447 z"
         style="opacity:1;fill:#002145;fill-opacity:1;stroke:#fbfbfb;stroke-width:0.10037741;stroke-miterlimit:4;stroke-dasharray:none;stroke-opacity:1"
         inkscape:connector-curvature="0"
         sodipodi:nodetypes="ccccccccscscccccccccccscsscc" />
      <path
         id="path979"
         d="m -105.23693,172.43677 c 1.4018,-2.14266 1.5213,-2.44377 1.5213,-3.83231 0,-1.40134 -0.043,-1.50694 -0.6159,-1.50694 -0.5314,0 -0.7361,0.318 -1.4904,2.31511 -0.48091,1.27331 -1.21741,2.99971 -1.63681,3.83646 l -0.7624,1.52135 0.7314,-0.004 c 0.6264,-0.004 0.95,-0.3382 2.25281,-2.32951 z"
         style="fill:#002145;fill-opacity:1;stroke:#fbfbfb;stroke-width:0.10037741;stroke-miterlimit:4;stroke-dasharray:none;stroke-opacity:1"
         inkscape:connector-curvature="0" />
      <path
         id="path975"
         d="m -56.546027,174.43971 c 0.2417,-0.1819 3.831299,-7.20659 7.977,-15.61043 4.145698,-8.40381 7.605098,-15.27968 7.687699,-15.27968 0.083,0 -0.032,0.35127 -0.2535,0.78061 -0.221999,0.42934 -0.403699,0.84409 -0.403699,0.92168 0,0.30136 3.512698,-1.15501 5.449999,-2.25959 1.969399,-1.1229 5.927095,-4.50142 5.927095,-5.05977 0,-0.17813 -0.9432,-0.2297 -2.711995,-0.14828 -2.1155,0.0974 -3.087301,0.27754 -4.418899,0.8192 -0.9388,0.38191 -1.759601,0.6418 -1.823802,0.57753 -0.064,-0.0643 1.706901,-7.39235 3.935902,-16.28466 3.370294,-13.44504 3.989295,-16.20798 3.675896,-16.40634 -0.457102,-0.28932 -0.810702,-0.30236 -1.196398,-0.0441 -0.1597,0.10691 -2.7647,7.99298 -5.788898,17.52459 l -5.4986,17.33021 -1.0902,0.92296 c -0.599702,0.50764 -1.690402,1.48362 -2.424001,2.16884 -0.733499,0.68522 -2.281301,1.86273 -3.439599,2.61667 -1.158201,0.75395 -3.083002,2.07434 -4.277302,2.93421 l -2.171399,1.56336 -2.390499,-1.72958 c -1.314802,-0.95127 -2.782355,-2.22568 -2.828155,-2.22568 -0.046,0 -0.420928,1.21056 -0.920229,2.24257 l -0.884075,1.8764 1.447158,1.15749 c 0.6531,0.56517 1.387801,1.09551 1.6328,1.17855 0.245001,0.083 1.4356,-0.2395 2.645899,-0.71678 2.5728,-1.01465 9.922002,-4.5841 11.536101,-5.60302 0.613399,-0.38725 1.1153,-0.59385 1.1153,-0.45911 0,0.13473 -2.740101,6.28965 -6.089099,13.67761 -6.024801,13.29093 -6.230501,13.84549 -5.1401,13.86126 0.154098,0.002 0.477898,-0.14478 0.7196,-0.32667 z"
         style="opacity:1;fill:#002145;fill-opacity:1;stroke:#fbfbfb;stroke-width:0.10037741;stroke-miterlimit:4;stroke-dasharray:none;stroke-opacity:1"
         inkscape:connector-curvature="0"
         sodipodi:nodetypes="ccscscscccccccccccsccsccccccscccc" />
      <path
         id="path826-3-9-6"
         d="m -64.088628,151.01226 c 1.347901,-2.82579 1.6681,-3.78202 2.008899,-5.99917 0.222898,-1.45065 0.363101,-2.67982 0.311401,-2.73149 -0.052,-0.0517 -0.4578,0.0942 -0.902501,0.32421 -0.843698,0.43628 -0.864,0.48469 -1.7809,4.25109 -0.247999,1.01864 -0.954598,2.8641 -1.5703,4.10103 -0.6156,1.23693 -1.301199,2.6846 -1.5235,3.21706 l -0.404198,0.9681 1.1288,-0.38461 c 1.0991,-0.37449 1.1709,-0.47294 2.732299,-3.74622 z"
         style="fill:#002145;fill-opacity:1;stroke:#fbfbfb;stroke-width:0.10037741;stroke-miterlimit:4;stroke-dasharray:none;stroke-opacity:1"
         inkscape:connector-curvature="0" />
    </g>
  </g>
</svg>
