<?xml version="1.0" encoding="UTF-8" standalone="no"?>
<!-- Created with Inkscape (http://www.inkscape.org/) -->

<svg
   xmlns:dc="http://purl.org/dc/elements/1.1/"
   xmlns:cc="http://creativecommons.org/ns#"
   xmlns:rdf="http://www.w3.org/1999/02/22-rdf-syntax-ns#"
   xmlns:svg="http://www.w3.org/2000/svg"
   xmlns="http://www.w3.org/2000/svg"
   xmlns:sodipodi="http://sodipodi.sourceforge.net/DTD/sodipodi-0.dtd"
   xmlns:inkscape="http://www.inkscape.org/namespaces/inkscape"
   width="256px"
   height="256px"
   viewBox="0 0 256 256"
   version="1.1"
   id="SVGRoot"
   inkscape:version="0.92.5 (2060ec1f9f, 2020-04-08)"
   sodipodi:docname="soaring-icon.svg"
   inkscape:export-filename="/home/kb1rd/Projects/ubc-soaring.github.io/assets/site-images/soaring-icon.png"
   inkscape:export-xdpi="100.02238"
   inkscape:export-ydpi="100.02238">
  <defs
     id="defs1727" />
  <sodipodi:namedview
     id="base"
     pagecolor="#ffffff"
     bordercolor="#666666"
     borderopacity="1.0"
     inkscape:pageopacity="0.0"
     inkscape:pageshadow="2"
     inkscape:zoom="2"
     inkscape:cx="62.737826"
     inkscape:cy="106.17311"
     inkscape:document-units="px"
     inkscape:current-layer="g938"
     showgrid="false"
     inkscape:window-width="1624"
     inkscape:window-height="986"
     inkscape:window-x="56"
     inkscape:window-y="27"
     inkscape:window-maximized="1"
     inkscape:grid-bbox="true" />
  <metadata
     id="metadata1730">
    <rdf:RDF>
      <cc:Work
         rdf:about="">
        <dc:format>image/svg+xml</dc:format>
        <dc:type
           rdf:resource="http://purl.org/dc/dcmitype/StillImage" />
        <dc:title />
      </cc:Work>
    </rdf:RDF>
  </metadata>
  <g
     inkscape:label="Layer 1"
     inkscape:groupmode="layer"
     id="layer1">
    <path
       style="fill:#ffffff;fill-opacity:1;stroke:none;stroke-width:2.87689066;stroke-miterlimit:4;stroke-dasharray:none;stroke-opacity:1"
       d="M 123.96171,247.02166 C 112.44894,244.60139 100.45812,239.76752 90.234,233.42497 78.357,226.05704 66.41846,214.52135 58.56622,202.82575 48.42371,187.71891 42.49613,170.88664 40.85359,152.52798 40.61011,149.80654 40.47388,123.51328 40.47307,79.082654 l -10e-4,-69.2063087 h 87.72893 87.72891 l -0.003,68.8377087 c -0.001,41.903586 -0.1448,70.496306 -0.36516,73.076716 -2.03319,23.80767 -11.43476,45.48486 -27.33752,63.0321 -14.59039,16.09936 -34.84477,27.71316 -56.15251,32.1978 l -4.0547,0.85339 z"
       id="path1982-2"
       inkscape:connector-curvature="0"
       sodipodi:nodetypes="ccscsccccccccc" />
    <path
       style="fill:#fdb913;fill-opacity:1;stroke-width:0.44817761"
       d="m 121.51197,209.98742 c -8.20799,-2.95095 -11.34907,-4.22656 -16.78963,-6.8184 -25.017492,-11.91809 -37.736037,-25.99109 -49.83639,-55.14376 -1.679517,-4.04638 -2.957819,-7.44804 -2.840672,-7.55926 0.117124,-0.11118 6.599667,4.3137 14.405612,9.83322 7.805916,5.51951 14.244878,9.90219 14.308831,9.73928 0.06391,-0.16291 -3.923951,-9.60948 -8.861952,-20.99238 -4.938,-11.38289 -8.922856,-20.73872 -8.855247,-20.79068 0.06767,-0.052 7.982854,7.06688 17.589388,15.81971 9.60654,8.75283 17.51935,15.75201 17.58402,15.55375 0.0647,-0.19829 -2.96688,-13.03492 -6.73682,-28.52584 -3.76996,-15.49094 -6.818836,-28.196905 -6.775281,-28.235495 0.04365,-0.0386 7.418911,11.601775 16.389721,25.867475 8.97079,14.2657 16.44456,25.79256 16.60838,25.61525 0.16374,-0.17731 2.40582,-14.96307 4.9823,-32.85721 2.57648,-17.894155 4.81561,-33.222655 4.97588,-34.063305 0.19682,-1.03259 1.88722,9.46854 5.21015,32.366925 2.70535,18.64247 5.01178,34.16027 5.12542,34.48402 0.11368,0.32373 7.59124,-11.0971 16.61684,-25.37959 9.02556,-14.2825 16.41024,-25.804435 16.41039,-25.604285 2.8e-4,0.4351 -13.27575,55.278025 -13.58452,56.117215 -0.11786,0.3203 -0.0275,0.51683 0.20085,0.4367 0.22832,-0.0801 7.00694,-6.14037 15.06357,-13.46726 8.05666,-7.32689 15.93989,-14.47863 17.51831,-15.89281 l 2.86984,-2.57117 -2.72496,6.28519 c -1.49873,3.45685 -5.6289,12.95729 -9.17815,21.11208 -3.54924,8.15477 -6.37567,14.90049 -6.28087,14.99046 0.0947,0.09 6.65619,-4.4559 14.58096,-10.10193 7.92477,-5.64603 14.45867,-10.21806 14.51974,-10.16005 0.16342,0.15514 -3.61263,9.39728 -6.08523,14.89378 -13.13367,29.19537 -30.03333,43.45219 -66.52159,56.11871 l -3.51644,1.22071 z"
       id="path2079-2-0-6"
       inkscape:connector-curvature="0"
       sodipodi:nodetypes="scssccscscccscscscscccsscsccsscccs" />
    <g
       style="stroke-width:0.32354107;stroke-miterlimit:4;stroke-dasharray:none"
       id="g938"
       transform="matrix(0.43155836,0,0,0.42964344,244.39732,-35.481385)">
      <path
         style="fill:#ffffff;fill-opacity:1;stroke:#1c2c3d;stroke-width:0.41795015;stroke-miterlimit:4;stroke-dasharray:none;stroke-opacity:1"
         d="M 120.58398 130.28125 C 120.1909 130.28571 119.79995 130.306 119.41211 130.3418 C 113.98058 130.84316 110.427 134.19745 108.3457 136.41992 C 106.26441 138.64239 104.86315 140.09822 104.80078 140.13672 A 7.9000335 7.8649793 0 0 0 103.39062 141.25977 C 103.19972 141.26988 102.95093 141.30614 102.0293 141.25586 C 100.21218 141.15672 96.498868 140.55709 92.623047 142.19141 C 87.359023 141.40278 82.715323 141.56779 79.535156 141.68945 C 70.614267 137.59699 59.328282 136.56231 50.1875 143.19922 A 7.9000335 7.8649793 0 0 0 48.341797 145.08398 C 49.025088 144.09916 47.855271 145.18839 44.822266 146.2207 C 43.648086 146.62035 42.275855 147.06429 40.722656 147.86914 C 40.762492 150.24827 40.804906 151.98402 40.853516 152.52734 C 42.496056 170.886 48.423896 187.71933 58.566406 202.82617 C 66.418646 214.52177 78.357375 226.05785 90.234375 233.42578 C 100.45849 239.76833 112.45012 244.60121 123.96289 247.02148 L 128.01758 247.875 L 132.07227 247.02148 C 153.38001 242.53684 173.63422 230.92163 188.22461 214.82227 C 204.12737 197.27503 213.52931 175.59869 215.5625 151.79102 C 215.63207 150.9764 215.68997 146.78737 215.74219 141.1875 C 211.35861 140.86187 208.1147 141.54762 206.43164 141.47461 C 206.23856 141.46623 206.19308 141.44622 206.0625 141.42969 A 7.9000335 7.8649793 0 0 0 206.00977 141.31445 C 204.27106 137.7741 200.54046 134.83573 197.09375 134.00781 C 193.64704 133.1799 190.94743 133.68483 188.78711 134.08789 C 184.46647 134.89401 182.07226 134.85024 182.80469 135.17188 A 7.9000335 7.8649793 0 0 0 179.85156 134.50781 C 174.37413 134.34612 166.34289 131.77098 157.30859 135.01758 C 154.78003 134.08937 151.85208 132.99596 148.22461 132.22266 C 144.03902 131.33038 138.75009 131.17975 133.6875 133.27734 C 130.8924 132.95117 128.51717 132.26319 125.3418 131.01562 A 7.9000335 7.8649793 0 0 0 124.12305 130.64648 C 123.34694 130.47827 122.55536 130.36635 121.76562 130.31445 C 121.37076 130.28851 120.97706 130.27679 120.58398 130.28125 z "
         transform="matrix(2.3171837,0,0,2.3275114,-566.31349,82.583328)"
         id="path2200-9-2" />
      <path
         sodipodi:type="inkscape:offset"
         inkscape:radius="0"
         inkscape:original="M -284.45508 413.41797 C -285.95464 418.22535 -280.79173 413.74936 -284.45508 413.41797 z M -251.96875 414.12695 C -255.70598 414.29486 -255.886 420.14712 -260.64062 419.87695 C -261.51684 417.88322 -261.95248 417.06425 -263.53711 422.08203 C -265.04036 425.15749 -268.44791 422.60948 -270.89453 424.40039 C -271.88033 425.35174 -274.95521 420.32357 -277.45312 424.25977 C -279.87932 428.35237 -284.37112 422.03023 -286.33203 426.46484 C -289.0896 429.20225 -292.45612 426.64486 -295.50977 430.62891 C -296.85075 431.25536 -302.0237 436.13886 -302.82422 433.66406 C -299.61677 427.95456 -304.15922 430.47904 -303.98242 425.98633 C -303.50943 422.66395 -308.89778 426.7767 -311.35938 425.58203 C -311.50263 424.07872 -311.88118 423.4374 -312.39258 423.30859 C -312.86357 423.65809 -313.33632 424.00492 -313.82617 424.30859 C -315.16483 425.97588 -316.66647 427.10994 -318.26562 427.93164 C -320.22938 429.50441 -323.09856 433.69011 -321.74219 429.4043 C -321.81169 429.3465 -321.89911 429.31294 -321.97266 429.25977 C -324.35896 429.76835 -326.88411 429.79907 -329.43945 429.69531 C -329.54736 429.79779 -329.67598 429.8877 -329.76562 430 C -329.99788 433.17407 -329.29092 436.29932 -327.0332 438.97852 C -329.16997 437.8514 -333.92604 440.76609 -330.70703 443.19727 C -333.56405 444.18774 -334.43631 448.83844 -336.75 449.10352 C -341.49969 449.74165 -339.96497 443.73265 -339.07031 441.15234 C -337.83923 438.39096 -336.7364 430.69514 -341.82227 431.67383 C -345.91572 432.44906 -348.68618 431.57729 -348.82422 436.4375 C -353.12494 433.22621 -352.80769 437.50539 -350.30859 440.14258 C -349.71468 440.21178 -354.16215 447.65143 -353.89648 447.61523 C -356.88707 443.60758 -354.47462 439.04461 -354.4668 436.17383 C -359.14399 435.1704 -356.95694 445.26126 -359.35156 437.42969 C -356.31609 432.53196 -362.04816 438.20663 -364.33008 435.37891 C -368.61925 435.05399 -363.34485 430.49285 -367.93164 433.96094 C -372.53915 437.29084 -373.62775 433.78865 -376.99609 432.22852 C -378.27558 435.4798 -383.98562 435.19691 -386.56445 436.30664 C -390.92692 432.68259 -387.81438 437.11352 -391.22656 439.21484 C -396.04464 438.03526 -395.49082 446.97033 -398.47656 442.6875 C -400.42549 440.86329 -401.6566 438.91343 -398.50391 438.02344 C -396.18934 443.42331 -397.75747 434.19879 -400.33203 437.16602 C -400.17618 431.62843 -404.75364 441.019 -403.23242 436.16016 C -407.43806 432.91442 -406.36408 432.79763 -411.65039 433.49609 C -414.08109 435.5088 -415.92857 436.6798 -417.25391 432.99609 C -419.62415 434.74701 -420.45824 440.12141 -424.625 437.41016 C -426.19151 433.35815 -428.92759 432.17704 -431.04883 435.41992 C -434.66938 435.19147 -434.9823 435.25302 -436.77734 432.93359 C -434.53604 437.17236 -439.82016 438.48563 -442.63477 438.41992 C -445.78869 439.67724 -451.10851 441.83119 -446.44531 437.30078 C -446.00325 436.70571 -445.76519 436.27817 -445.66602 435.96875 C -447.11479 436.73366 -448.65853 437.40791 -450.25586 438.01953 C -450.67162 438.55581 -450.7914 439.02633 -450.29688 439.24805 C -448.17064 442.40104 -455.62873 440.6092 -456.97656 440.96094 C -459.31384 439.62772 -459.4339 446.54336 -462.51172 444.09766 C -462.48242 445.73097 -464.47986 445.11054 -466.65625 444.98438 C -468.24261 446.23937 -469.42849 447.74624 -469.98828 449.66602 C -469.80853 451.34387 -469.60014 453.04965 -469.37109 454.79492 C -469.37409 454.61032 -469.26345 454.37504 -468.85156 454.05859 C -467.4321 455.17111 -469.07751 455.43843 -469.35352 454.93945 C -468.97749 457.78987 -468.55693 460.6861 -468.04688 463.61328 C -466.99782 469.17161 -465.74452 474.68423 -464.30273 480.14648 C -462.97674 484.78519 -461.4658 489.12665 -459.71875 492.79883 C -459.8896 493.46787 -459.95025 494.17021 -459.91406 494.88867 C -459.29351 496.74905 -458.64578 498.60078 -457.98047 500.44531 C -457.24755 501.56091 -456.4236 502.46123 -455.64453 502.83008 C -456.25615 503.16554 -456.44104 503.90493 -456.36914 504.79492 C -455.83622 506.18878 -455.29461 507.57912 -454.73633 508.96289 C -453.88625 510.20534 -452.93659 510.96245 -452.44531 510.17188 C -452.73393 511.71492 -452.5756 513.39347 -452.13281 515.1543 C -450.37016 519.20049 -448.49444 523.1972 -446.51758 527.14258 C -444.56277 530.5296 -442.6182 533.87145 -441.34766 536.90234 C -440.91656 537.67474 -440.49792 538.45295 -440.05859 539.2207 C -433.85313 550.06495 -426.81769 560.43073 -419.05078 570.21484 C -417.00877 565.56669 -410.21127 573.99203 -409.58203 568.72852 C -408.21938 563.59738 -404.49596 568.62928 -402.82031 566.45117 C -397.73423 563.21087 -396.49394 572.27567 -395.05859 565.28711 C -391.81375 569.36316 -392.92904 566.80585 -389.08594 564.72461 C -385.56347 566.85778 -379.81502 568.78932 -376.19141 567.18359 C -375.96045 561.789 -372.14178 571.81486 -369.05859 567.40625 C -366.23059 568.16683 -362.31511 567.29645 -360.00195 570.39258 C -357.38573 570.00756 -351.44694 568.24937 -351.39062 571.92383 C -347.35651 570.77811 -342.88131 570.18634 -338.83984 572.67383 C -334.81123 571.67816 -332.28379 568.62372 -327.84766 568.41992 C -324.40912 571.0182 -325.81675 576.83765 -318.70898 574.625 C -318.24276 578.4964 -318.71215 583.06158 -314.86328 583.90234 C -321.01776 586.63277 -311.20166 587.05749 -312.16016 582.28516 C -308.87329 582.47159 -305.33682 583.58565 -302.55664 586.05859 C -300.95428 587.82998 -295.43352 592.33619 -294.33008 588.01172 C -289.38458 585.27596 -290.87469 590.63677 -292.81836 593.42188 C -292.31412 601.99596 -291.38596 591.28597 -287.60938 590.25781 C -289.34497 584.59393 -281.36105 592.81557 -282.1875 588.75781 C -277.5624 587.50929 -283.54003 578.91964 -277.4707 580.10742 C -270.6516 580.67098 -276.8975 576.28861 -273.98633 573.375 C -273.51112 567.62861 -269.48812 567.45223 -268.32422 572.93359 C -265.13995 575.49243 -267.0802 579.67213 -263.92969 579.37891 C -263.09963 584.97504 -261.95854 588.20006 -256.91992 589.38086 C -254.88578 593.48268 -256.89408 598.66764 -255.79688 602.5918 C -254.13671 598.65311 -255.5526 591.61595 -255.06836 586.49414 C -254.04514 580.73486 -257.029 575.09649 -255.33203 569.64258 C -253.43829 569.82815 -253.95786 571.56602 -249.59766 571.71484 C -244.86262 571.16413 -245.55117 572.91374 -247.76367 569.26562 C -243.67754 569.32983 -240.57208 571.33046 -236.73047 570.51953 C -233.52198 576.39059 -235.7354 583.80519 -234.82422 590.28906 C -232.16414 590.26126 -225.85204 595.18694 -227.71094 589.4043 C -232.44958 587.15106 -224.81146 585.26315 -222.50586 584.92578 C -219.73048 588.80674 -216.23433 584.81285 -212.82617 583.70703 C -210.01318 578.05271 -204.09563 582.48963 -200.22656 583.54297 C -195.88802 587.1012 -193.52559 582.36081 -197.6543 583.125 C -196.38061 579.51882 -191.78972 580.72649 -190.37695 576.72852 C -185.1815 574.96071 -186.07981 581.78307 -186.00977 584.46289 C -186.54411 589.18069 -184.88692 591.47256 -184.95117 595.18164 C -187.22162 594.10751 -185.22769 598.78593 -184.50781 599.8457 C -186.68404 603.84285 -180.05073 599.28237 -181.95898 597.67773 C -181.36258 594.90544 -183.65831 591.66039 -181.51172 589.03125 C -182.68354 586.20226 -180.65951 583.65014 -181.83203 580.87891 C -182.27243 578.11357 -181.01962 575.00289 -182.38477 572.75586 C -180.44772 570.15957 -183.42943 566.44342 -181.22266 564.85547 C -179.51916 560.28952 -174.67577 560.44155 -175.70898 560.67383 C -171.36361 562.62685 -175.88306 557.18644 -172.54688 557.87695 C -171.92592 558.61863 -166.87949 556.78069 -169.36914 553.77734 C -166.81087 554.38904 -167.32449 552.33106 -166.20117 549.45898 C -165.13547 549.8217 -156.15289 548.29175 -158.42969 552.81836 C -154.42411 553.0898 -155.23235 558.35553 -150.93945 558.41016 C -147.94928 560.71898 -150.91599 565.93713 -149.23438 569.55664 C -144.63008 568.66725 -145.47598 578.82055 -145.13867 575.85742 C -143.25707 573.75698 -138.74298 574.72416 -136.67969 572.98438 C -135.11091 574.84263 -132.96506 575.30043 -132.56641 572.85156 C -129.86186 572.30197 -127.86663 571.86903 -126.31055 573.62891 C -122.6748 574.18355 -122.57162 572.14311 -119.55469 569.78711 C -113.30056 561.87233 -107.51254 553.58989 -102.25195 544.98047 C -101.83087 544.28741 -101.41831 543.59167 -101.00391 542.89453 C -100.23409 541.60681 -99.476996 540.30905 -98.730469 539.00781 C -97.937876 537.61861 -97.152803 536.22447 -96.386719 534.82031 C -96.130647 534.35346 -95.880036 533.88448 -95.626953 533.41602 C -84.568078 512.83698 -76.36084 490.70937 -71.544922 467.83594 C -76.836929 464.8308 -72.503007 461.5298 -69.5625 457.02148 C -68.382938 449.57019 -67.572698 442.05319 -67.150391 434.49609 C -67.602288 432.59372 -68.842676 432.35252 -71.648438 435.91016 C -72.98061 431.87922 -76.362146 435.58392 -75.152344 430.21875 C -76.247214 433.387 -80.062709 429.70619 -82.03125 431.08203 C -81.928899 428.46491 -83.717549 437.37015 -85.289062 430.30469 C -89.741995 430.10089 -86.375736 434.05444 -86.779297 436.11133 C -90.244622 436.17363 -89.367444 434.30494 -91.173828 434.08203 C -94.936285 433.71024 -95.354895 437.26757 -99.767578 436.57031 C -102.44354 433.05321 -101.58152 428.05107 -104.95312 428.87305 C -107.65138 430.83442 -111.87162 430.75902 -115.31445 429.31836 C -117.70543 429.98242 -124.13948 427.11286 -123.70508 431.05078 C -121.27903 431.00928 -122.28608 434.99457 -118.30859 433.56445 C -119.32351 438.73837 -123.53016 432.90074 -125.18945 432.60547 C -125.63418 425.11426 -125.57119 431.72563 -127.60547 433.10156 C -130.04238 431.09003 -128.41134 427.66736 -131.77344 432.36523 C -127.84687 433.96453 -132.43734 440.46768 -136.70703 435.96094 C -140.74952 433.18105 -133.46158 429.96881 -130.95508 428.46875 C -125.18163 427.69669 -132.7878 425.61596 -134.67969 426.06445 C -138.17305 428.81387 -137.99223 430.73988 -137.61133 425.49609 C -140.95674 423.60056 -141.17028 430.05249 -143.62109 425.5918 C -144.0367 426.58513 -140.73333 433.04228 -145.82617 429.41406 C -148.91338 430.21978 -148.2489 423.06401 -150.64062 425.13281 C -147.15426 432.44376 -152.93073 422.45343 -152.91797 424.6875 C -155.68705 430.6324 -155.02029 426.82197 -158.41211 422.94531 C -163.66433 425.0869 -161.34211 427.98375 -157.96484 427.06445 C -160.25329 431.32261 -164.29786 430.70705 -166.64844 431.98828 C -166.9613 427.63813 -172.79138 428.75476 -173.17578 432.47852 C -176.06491 435.47217 -176.79011 428.04857 -178.02148 425.83203 C -182.79305 426.69635 -175.55881 419.21436 -179.5918 418.97656 C -183.11253 420.9788 -181.06849 425.19785 -183.72852 428.23633 C -186.45578 424.67081 -186.69527 424.65725 -189.95703 424.00391 C -192.73334 420.7144 -194.81204 418.60963 -196.59961 424.40039 C -196.11453 427.52216 -201.03538 430.0565 -202.57031 427.79688 C -205.41972 425.27121 -210.91147 427.7965 -210.82031 423.40039 C -211.17009 415.79003 -208.35373 428.06088 -208.50391 421.77344 C -204.16554 421.40218 -203.3825 414.34849 -208.19531 417.34961 C -210.80567 418.8037 -213.49201 418.28019 -214.86719 422.59961 C -217.78837 426.14857 -218.30382 418.19173 -221.75 421.20898 C -226.06789 417.64588 -225.91579 425.06239 -229.46289 421.62305 C -231.54669 421.91573 -236.15982 422.44888 -231.12305 424.79492 C -226.65067 426.40444 -231.36348 429.4611 -225.71484 427.06055 C -226.32991 422.45876 -219.82814 426.33717 -222.78711 428.30078 C -218.4901 428.1021 -220.2647 429.24644 -217.02148 429.82422 C -212.19455 430.14826 -214.58037 430.66951 -214.35938 433.5293 C -210.1833 429.90331 -210.45979 436.81743 -214.98047 435.46484 C -216.76413 436.84117 -223.21374 432.6214 -221.41602 430.02734 C -223.08481 429.51542 -226.27244 434.78064 -227.03125 437.375 C -228.12047 436.15294 -227.66635 427.50243 -234.08203 431.08789 C -237.99677 429.99487 -238.78246 435.12413 -242.62695 431.95117 C -241.6677 426.96241 -248.20198 429.142 -246.56445 424.99023 C -247.49186 426.46453 -256.82331 426.04199 -252.97852 424.52734 C -246.98244 422.14189 -255.63895 418.12463 -251.09961 415.8457 C -251.10261 414.94402 -250.80516 414.23693 -251.96875 414.12695 z M -303.26758 414.13086 C -303.40835 414.28778 -303.55303 414.43629 -303.69336 414.59375 C -303.46275 414.50175 -303.30609 414.34457 -303.26758 414.13086 z M -240.29688 414.17188 C -243.33369 415.486 -236.03774 417.05176 -239.48242 414.59375 L -240.29688 414.17188 z M -280.79297 414.21289 C -286.95383 417.60298 -279.73706 416.27542 -280.79297 414.21289 z M -247.08594 414.77734 C -247.2076 414.76734 -247.34829 414.79309 -247.51953 414.87109 C -247.92357 417.76174 -249.75513 421.64203 -246.23047 421.88672 C -246.93399 425.1167 -238.27218 426.68671 -244.6543 422.26758 C -243.24893 421.7518 -239.45701 422.54045 -237.06445 420.69922 C -233.45678 426.8722 -234.24406 416.60426 -239.76758 418.61719 C -242.25816 421.60746 -243.17546 415.33843 -245.50586 416.36328 C -246.43558 416.7621 -246.23424 414.84505 -247.08594 414.77734 z M -241.80273 415.79883 C -242.95455 417.8496 -240.01771 416.07629 -241.80273 415.79883 z M -221.60547 416.19531 C -223.6549 416.52258 -220.63457 418.39499 -221.60547 416.19531 z M -305.30078 416.39453 C -305.84432 417.00629 -306.39007 417.62073 -306.9375 418.2168 C -306.55904 421.09095 -301.50652 424.85283 -303.86133 419.84961 C -305.49196 419.16981 -303.9028 416.84143 -305.30078 416.39453 z M -284.64062 417.38672 C -290.85118 419.14176 -289.17066 421.61196 -284.25 418.5625 C -283.22567 418.18211 -283.64741 417.12392 -284.64062 417.38672 z M -219.62695 417.65039 C -220.24411 421.29241 -214.40221 420.2776 -219.62695 417.65039 z M -268.52344 418.44531 C -271.56294 421.15663 -264.98406 418.78764 -268.52344 418.44531 z M -255.41797 418.69922 C -248.74038 419.84857 -260.89925 423.63275 -255.41797 418.69922 z M -230.85547 419.10352 C -231.77106 422.17644 -226.91517 419.29894 -230.85547 419.10352 z M -188.10938 420.10938 C -193.46216 420.79919 -186.28078 421.54627 -186.06055 422.19141 C -185.73932 421.31163 -187.63248 421.03553 -188.10938 420.10938 z M -293.95898 422.14453 C -295.30806 425.88519 -299.03035 423.78278 -301.31641 423.46875 C -302.55291 426.20553 -296.82901 426.73695 -295.55078 425.89062 C -292.59338 426.53217 -289.49559 422.09693 -293.95898 422.14453 z M -258.68555 422.14453 C -258.29835 423.555 -262.69446 422.35885 -258.68555 422.14453 z M -169.3418 422.14453 C -167.33695 425.86357 -163.24942 424.17642 -168.82227 422.14453 L -169.3418 422.14453 z M -191.87109 423.60547 C -189.30694 426.11812 -195.07133 426.34784 -191.87109 423.60547 z M -274.38086 423.69141 C -274.515 426.43333 -276.52111 425.19214 -274.38086 423.69141 z M -212.7793 424 C -208.7002 425.92268 -219.1989 426.91485 -212.92969 424.55078 L -212.7793 424 z M -216.66406 424.99023 C -214.2559 424.98223 -217.99647 429.65352 -217.23242 425.05859 C -217.0141 425.01229 -216.82459 424.99083 -216.66406 424.99023 z M -276.73438 425.05859 C -275.72746 425.41738 -277.72345 426.07492 -276.73438 425.05859 z M -314.35547 425.33203 C -310.77394 426.69381 -315.1739 427.85063 -314.35547 425.33203 z M -220.14258 425.58594 C -217.59171 425.43121 -220.66325 428.29609 -220.14258 425.58594 z M -238.41016 425.80859 C -241.54614 427.87261 -235.69681 431.27413 -238.41016 425.80859 z M -268.82227 426.08594 C -267.37375 426.5983 -269.20122 427.13872 -268.82227 426.08594 z M -174.22461 426.35547 C -174.31391 426.32957 -174.44634 426.33371 -174.63281 426.38281 C -175.06707 428.19997 -173.59902 426.53672 -174.22461 426.35547 z M -308.01562 426.51367 C -303.14396 426.1747 -306.81455 431.80466 -307.45508 434.19141 C -309.09815 439.65038 -308.68687 430.74317 -309.57227 429.18164 C -307.87204 428.46125 -309.36335 427.88691 -308.01562 426.51367 z M -166.38281 426.85547 C -168.41959 429.61992 -164.46003 429.05259 -166.38281 426.85547 z M -284.11914 426.86328 C -283.16705 426.98931 -284.83698 428.51854 -284.69922 426.91016 C -284.4432 426.85776 -284.25513 426.84528 -284.11914 426.86328 z M -193.41797 427.06836 C -192.07426 427.94795 -194.05346 428.96801 -193.41797 427.06836 z M -313.01172 427.13281 C -310.82416 427.55011 -313.59936 429.661 -313.01172 427.13281 z M -152.38867 427.17383 C -149.11025 427.70084 -154.22925 431.13581 -152.38867 427.17383 z M -133.85547 427.17383 C -131.27459 427.10293 -134.85714 429.0974 -133.85547 427.17383 z M -281.95117 427.41406 C -280.93304 427.53637 -282.86561 428.76045 -282.58008 427.4375 C -282.29899 427.3992 -282.09662 427.39656 -281.95117 427.41406 z M -212.62109 427.95117 C -211.60466 428.16614 -213.65516 429.90682 -213.26367 427.96875 C -212.97738 427.92205 -212.76629 427.92047 -212.62109 427.95117 z M -148.39648 429.04102 C -142.48184 434.14663 -151.73992 430.82727 -148.39648 429.04102 z M -426.89258 429.21875 C -430.94972 433.82352 -424.96372 431.07992 -426.89258 429.21875 z M -181.26367 429.4375 C -178.84472 437.14869 -192.56082 430.6598 -181.26367 429.4375 z M -210.88281 429.52344 C -209.42873 430.03328 -211.26252 430.57398 -210.88281 429.52344 z M -438.16602 429.96875 C -438.51983 430.20669 -438.8888 430.41595 -439.23438 430.66797 C -439.24597 430.68477 -439.26379 430.69814 -439.27539 430.71484 C -438.85581 431.69691 -435.44299 430.8074 -438.16602 429.96875 z M -90.810547 429.98633 C -91.656156 430.61257 -89.890234 430.69718 -90.25 430.0332 C -90.436997 430.0176 -90.625056 430.00503 -90.810547 429.98633 z M -332.79297 430.00586 C -335.74773 432.24116 -329.02472 432.40941 -332.79297 430.00586 z M -327.29883 430.04688 C -324.75813 430.59343 -326.60469 434.42624 -327.29883 430.56055 L -327.29883 430.04688 z M -97.650391 430.24219 C -100.65918 432.6167 -92.515766 431.64 -97.650391 430.24219 z M -312.84961 430.31445 C -311.8509 430.65899 -314.32559 433.59548 -313.50977 430.35156 C -313.2056 430.26946 -312.9923 430.26525 -312.84961 430.31445 z M -209.02734 431.67383 C -204.97484 431.94866 -209.67379 435.26104 -209.02734 431.67383 z M -140.70312 431.67383 C -138.09476 431.82668 -142.82377 434.54149 -140.70312 431.67383 z M -176.97266 432.20117 C -173.36619 433.21832 -179.6322 436.90517 -176.97266 432.20117 z M -339.73242 432.4375 C -337.9052 433.59153 -341.88348 434.20395 -339.73242 432.4375 z M -156.87305 432.6875 C -152.84761 432.6439 -151.97493 435.33542 -154.0625 437.16992 C -147.27804 441.82383 -155.66791 439.20535 -158.05078 437.70117 C -165.67876 436.16008 -155.28849 435.28407 -158.26758 434.13672 C -159.12674 434.59578 -159.49911 433.32886 -158.79297 432.88281 C -158.08866 432.75445 -157.44813 432.69373 -156.87305 432.6875 z M -384.98047 433.15039 C -387.77537 435.34547 -382.71772 435.38522 -384.98047 433.15039 z M -149.84961 433.30469 C -147.42854 435.07088 -155.68694 437.5423 -149.84961 433.30469 z M -316.25586 433.50977 C -315.25034 433.88845 -318.11532 436.73733 -316.94922 433.52344 C -316.62467 433.45184 -316.3995 433.45557 -316.25586 433.50977 z M -146.19336 434.03711 C -138.45825 435.42777 -147.39057 439.85461 -148.07031 435.57422 C -148.26283 433.90125 -147.38483 434.15267 -146.19336 434.03711 z M -169.83984 434.31836 C -167.34789 434.03252 -171.01625 436.88411 -169.83984 434.31836 z M -162.72461 434.80078 C -160.24615 435.72729 -163.75152 437.71213 -162.72461 434.80078 z M -443.68359 434.8457 C -444.97002 437.23924 -441.77195 435.49568 -443.68359 434.8457 z M -79.646484 436.16992 C -78.117583 436.11372 -80.027939 438.01142 -79.646484 436.16992 z M -363.50977 436.64648 C -356.85224 438.75046 -362.63378 444.89343 -363.54688 441.32812 C -361.64173 441.71945 -366.00094 437.22645 -363.50977 436.64648 z M -94.699219 436.66016 C -91.943045 438.99121 -99.336179 438.835 -94.740234 436.6875 L -94.699219 436.66016 z M -141.52734 436.70117 C -137.10553 437.13527 -141.8827 440.14809 -141.52734 436.70117 z M -410.42773 437.19727 C -402.94767 439.73374 -416.51659 442.52224 -410.42773 437.19727 z M -307.92969 437.25195 C -303.70405 440.09447 -313.7531 437.88459 -307.92969 437.25195 z M -428.88477 437.36914 C -425.50615 439.23201 -431.13371 440.2333 -428.88477 437.36914 z M -325.44336 437.45117 C -322.86198 437.77342 -326.00139 440.73399 -325.44336 437.45117 z M -115.73438 437.48242 C -115.05742 437.62584 -116.42115 438.78371 -116.16016 437.49219 C -115.96948 437.46109 -115.83107 437.46182 -115.73438 437.48242 z M -434.68164 437.49219 C -431.93662 437.79393 -430.04647 439.79585 -426.25 440.625 C -418.99354 442.02132 -427.19319 441.56911 -427.10156 444.76953 C -428.57713 446.95106 -430.48898 443.68312 -432.20703 441.5918 C -433.666 442.27988 -434.6064 438.605 -434.68164 437.49219 z M -350.64258 437.49219 C -348.08722 437.90695 -350.75627 441.08952 -350.64258 437.49219 z M -86.738281 437.69141 C -83.342634 440.30877 -88.052935 437.55209 -86.738281 437.69141 z M -343.26172 439.34766 C -339.80418 440.21275 -347.41084 445.22072 -343.26172 439.34766 z M -126.65039 439.61914 C -124.40182 441.12131 -129.1574 442.28409 -126.65039 439.61914 z M -336.05273 440.0918 C -338.81604 440.58076 -333.42254 442.40151 -336.05273 440.0918 z M -327.82031 440.66602 C -323.28512 441.54661 -331.99512 446.43198 -328.06055 441.14648 L -327.82031 440.66602 z M -115.31836 440.95117 C -115.15242 441.05017 -115.2349 441.45782 -115.56641 440.99609 C -115.4556 440.91549 -115.37367 440.91827 -115.31836 440.95117 z M -393.70508 440.98828 C -390.66285 441.04788 -385.42935 447.44433 -390.58789 444.10742 C -394.20917 444.62627 -395.00364 446.4677 -394.28125 441.06445 C -394.10169 441.00735 -393.90789 440.98428 -393.70508 440.98828 z M -366.91406 441.4375 C -363.88553 443.63579 -371.66763 445.97397 -367.01367 441.51562 L -366.91406 441.4375 z M -103.75977 441.99219 C -100.72463 444.04645 -107.62296 445.27473 -103.75977 441.99219 z M -446.96094 442.21094 C -443.1788 442.41492 -442.55945 450.05779 -446.15039 448.91992 C -449.16864 447.4814 -450.56152 448.51488 -448.21484 443.79688 C -448.0772 443.17831 -448.54437 442.49192 -447.76172 442.27539 C -447.4818 442.21809 -447.21308 442.19734 -446.96094 442.21094 z M -364.60547 442.7832 C -361.35028 443.08345 -364.88636 446.65567 -364.60547 442.7832 z M -347.42188 442.80664 C -344.14283 446.81967 -350.11141 443.96947 -347.42188 442.80664 z M -459.26562 444.90234 C -454.75498 447.20034 -456.30706 448.44114 -460.23438 449.13477 C -463.93099 447.56237 -460.47454 446.21376 -459.26562 444.90234 z M -447.69336 445.33398 C -449.40223 446.68843 -446.63419 446.76698 -447.69336 445.33398 z M -452.12891 447.81055 C -450.74858 451.58817 -454.03307 453.04553 -451.52148 457.34375 C -453.6203 460.6389 -452.58237 452.35862 -456.94336 452.88086 C -454.39104 450.17206 -455.33902 450.52923 -452.20117 447.93359 L -452.12891 447.81055 z M -365.95312 449.37109 C -364.15352 449.32069 -366.90948 452.23643 -367.02734 449.59766 C -366.56349 449.44449 -366.21021 449.37828 -365.95312 449.37109 z M -462.51562 454.24023 C -457.77763 454.15783 -458.39778 459.98932 -456.25195 459.88086 C -456.79159 464.0697 -456.02882 469.0571 -461.42969 466.92773 C -462.53988 463.09557 -464.30388 459.87762 -464.81055 458.39062 C -469.6875 456.80446 -462.91458 456.50983 -462.51562 454.24023 z M -466.46094 461.73633 C -464.66889 463.02205 -467.73483 463.30603 -466.46094 461.73633 z M -464.38086 464.08203 C -462.47721 467.95736 -469.30086 465.20994 -465.33594 465.3457 L -464.85547 464.71289 L -464.38086 464.08203 z M -463.76367 469.96875 C -462.2179 472.11455 -465.96758 471.56602 -463.76367 469.96875 z M -456.21094 470.24609 C -449.31942 472.65643 -457.12477 475.91583 -456.74023 470.77734 L -456.21094 470.24609 z M -458.79492 473.41797 C -457.52072 479.69096 -466.22901 473.7202 -459.25781 473.62305 L -458.79492 473.41797 z M -456.85352 475.7832 C -456.62 475.7782 -456.33413 475.79453 -455.99023 475.83203 C -452.22456 480.24939 -460.35627 475.8553 -456.85352 475.7832 z M -463.82422 476.91406 C -459.66805 477.13553 -463.09365 481.11613 -463.82422 476.91406 z M -455.92969 478.47852 C -454.69306 482.02174 -458.81786 481.20352 -455.92969 478.47852 z M -462.76367 482.47461 C -460.33701 482.15388 -463.14826 484.81776 -462.76367 482.47461 z M -423.07812 529.4375 L -423.07227 529.4375 L -423.07227 530.36133 L -423.07812 530.36133 L -423.07812 529.4375 z M -410.77344 549.64844 C -408.99157 550.18213 -409.16155 554.12896 -410.77344 549.64844 z M -170.49609 553.57617 C -170.30835 553.65997 -171.25018 554.30494 -170.6543 553.58203 C -170.5736 553.56553 -170.5229 553.56467 -170.49609 553.57617 z M -414.2793 559.18555 C -409.11399 564.29756 -421.32606 562.23863 -415.65039 559.39453 C -415.19358 559.32423 -414.73623 559.2551 -414.2793 559.18555 z M -415.73633 559.82227 C -418.17495 560.20801 -413.39417 563.49731 -414.21289 559.86328 C -414.89335 559.77118 -415.38796 559.76717 -415.73633 559.82227 z M -341.30273 559.98242 L -341.18555 560.66016 L -341.18945 560.66016 L -341.30273 559.98242 z M -414.87305 560.25977 C -413.34508 560.20317 -415.25364 562.10625 -414.87305 560.25977 z M -170.66406 560.78711 C -171.36885 565.44502 -168.82203 562.71117 -170.66406 560.78711 z M -391.09961 560.94922 C -386.98529 561.99283 -392.96682 563.49331 -391.09961 560.94922 z M -379.52734 564.86914 C -376.0943 565.01866 -380.84952 568.24055 -381.53711 565.02344 C -380.6768 564.89179 -380.01778 564.84778 -379.52734 564.86914 z M -401.06055 566.60938 C -406.24384 570.66759 -392.03344 566.3492 -401.06055 566.60938 z M -405.21875 567.63672 C -404.66476 569.63403 -402.93792 567.82832 -405.21875 567.63672 z M -406.11133 567.66992 C -406.97461 571.0497 -404.30232 567.5689 -406.11133 567.66992 z M -403.68164 568.99219 C -407.18453 572.18787 -398.46736 570.01281 -403.68164 568.99219 z M -396.17188 569.05078 C -412.93849 572.76774 -387.07371 571.69741 -396.17188 569.05078 z M -337.69141 570.85938 C -336.29547 572.18399 -339.0887 571.51962 -337.69141 570.85938 z M -416.19922 571.36914 C -416.50355 573.62501 -414.68997 571.03975 -416.19922 571.36914 z M -409.20703 571.89258 C -409.42725 571.87518 -409.68295 571.93699 -409.89453 571.90039 C -413.03721 575.69405 -408.07242 577.86095 -408.73633 572.36523 C -408.80333 572.00898 -408.9868 571.90999 -409.20703 571.89258 z M -413.66016 572.95508 C -413.75556 572.92038 -413.89139 572.91954 -414.08008 572.96094 C -414.34696 574.92789 -412.99202 573.19832 -413.66016 572.95508 z M -411.83594 573.10156 C -411.94374 573.10856 -412.08411 573.14528 -412.26172 573.22461 C -411.89402 574.49494 -411.08133 573.05594 -411.83594 573.10156 z M -402.75781 573.19141 C -406.14012 575.03994 -397.44096 574.94625 -402.66211 573.23242 L -402.75781 573.19141 z M -143.58594 573.52344 C -143.66734 574.72918 -144.59083 573.38644 -143.58594 573.52344 z M -415.21289 574.29688 C -415.39079 574.37397 -415.48891 574.4556 -415.53906 574.53711 C -415.39615 574.70902 -415.25666 574.88515 -415.11328 575.05664 C -414.80406 575.12264 -414.56077 574.96273 -415.21289 574.29688 z M -147.84375 574.50586 C -151.38927 577.3087 -147.41892 577.6878 -145.54492 578.83789 C -147.63472 580.58478 -146.67305 581.46635 -144.93359 579.40234 C -145.789 576.5301 -148.56618 577.33723 -147.84375 574.50586 z M -413.57031 574.81055 C -414.73045 578.55254 -410.5572 574.86645 -413.57031 574.81055 z M -137.82422 575.28711 C -140.38093 575.0555 -136.47705 576.12666 -137.82422 575.28711 z M -151.25195 575.32812 C -151.39469 575.28453 -151.59981 575.2822 -151.88086 575.3418 C -152.25873 577.96856 -150.25285 575.63331 -151.25195 575.32812 z M -150.04883 577.7207 C -155.90181 580.56753 -143.38531 579.91717 -150.04883 577.7207 z M -152.14453 580.32422 C -154.15949 580.70137 -151.70163 581.99354 -152.14453 580.32422 z M -394.625 587.7168 C -397.5472 589.87922 -397.16316 593.22102 -395.42578 595.97656 C -393.98501 597.33599 -392.529 598.67641 -391.05469 600 C -388.24503 601.39709 -385.28565 600.94648 -384.43359 596.54102 C -386.13436 592.39339 -390.13477 588.50131 -394.625 587.7168 z M -142.3457 588.45703 C -142.79491 588.43663 -143.40278 588.46766 -144.20508 588.57031 C -143.84541 591.20659 -139.20135 588.59968 -142.3457 588.45703 z M -151.69531 591.2207 C -152.49935 593.81802 -152.61478 598.02778 -151.70508 600.21289 C -151.23224 598.1006 -151.01245 593.66005 -151.69531 591.2207 z M -143.06445 591.58594 C -143.33743 591.58794 -143.70955 591.63394 -144.20508 591.74414 C -144.13608 593.73996 -141.15354 591.56964 -143.06445 591.58594 z M -148.87695 592.24023 C -149.01884 592.21283 -149.21939 592.21518 -149.49609 592.27148 C -149.82123 594.27756 -147.88381 592.43197 -148.87695 592.24023 z M -143.17383 594.68555 C -143.41644 594.69355 -143.75152 594.75573 -144.20508 594.89062 C -144.39252 597.14291 -141.47569 594.62685 -143.17383 594.68555 z M -149.35156 598.84961 C -150.18026 600.41044 -147.40712 598.81241 -149.35156 598.84961 z M -207.61523 599.60938 C -207.86537 599.59078 -208.16493 599.60349 -208.52148 599.65039 C -211.02714 604.12501 -204.65415 606.29774 -207.33594 607.44141 C -209.1826 609.36198 -205.67175 609.59888 -208.30469 611.98633 C -207.12351 611.79345 -208.0365 619.33837 -210.74805 621.48438 C -212.14645 624.55403 -212.76659 616.02196 -216.79492 618.20508 C -223.59579 614.52533 -218.63018 620.66161 -223.17578 620.13867 C -221.29645 622.23808 -228.52103 620.76628 -228.38086 624.2832 C -235.46806 624.77595 -226.24862 632.41541 -232.29883 631.95703 C -232.33313 625.90457 -237.67985 632.35761 -235.41406 635.67969 C -232.39445 635.30729 -228.46556 638.13988 -226.625 634.61719 C -222.10373 635.85186 -222.56603 628.16723 -221.48828 635.375 C -216.40923 635.12465 -216.27369 632.47369 -212.7207 634.9082 C -210.38795 635.5342 -203.34604 637.15767 -203.20898 633.94922 C -202.68513 630.33257 -201.66027 634.54859 -199.9668 635.88086 C -198.92592 635.35828 -197.89558 634.81975 -196.86328 634.28125 C -196.65489 633.90839 -196.44439 633.50139 -196.22461 632.99805 C -197.05812 628.07964 -201.08562 637.96424 -199.76758 630.06641 C -201.62342 625.50574 -199.31705 626.97426 -199.88086 622.25195 C -198.87039 618.92096 -200.64943 616.19338 -204.12305 615.91992 C -211.5687 615.70062 -197.25752 615.21087 -199.87305 611.50977 C -199.29264 606.55799 -200.51343 600.87575 -206.14062 603.20898 C -206.48498 601.37947 -205.86436 599.73927 -207.61523 599.60938 z M -380.875 601.37305 C -383.18264 603.13905 -372.68883 601.12496 -380.875 601.37305 z M -152.08594 601.53516 C -153.99124 606.58063 -149.20341 601.24995 -152.08594 601.53516 z M -376.24609 605.20898 C -377.7524 605.72718 -375.78385 606.91519 -376.24609 605.20898 z M -215.75391 606.22656 C -215.97003 606.23256 -216.42526 606.48323 -216.45508 606.29492 C -213.98679 611.62141 -221.29691 607.19582 -220.22461 612.46484 C -223.92256 616.99036 -214.75622 615.8742 -212.99805 614.50195 C -216.66131 614.48255 -215.17672 609.55631 -215.64062 606.33203 C -215.63563 606.25353 -215.68186 606.22472 -215.75391 606.22656 z M -169.3418 606.55859 C -170.09426 609.48707 -167.85945 606.13368 -169.3418 606.55859 z M -360.27344 610 C -363.77739 612.71437 -357.24916 612.80514 -360.27344 610 z M -169.92578 610 C -171.62263 613.0753 -178.09897 611.96657 -177.09961 614.81055 C -178.14825 616.19091 -179.36547 622.1569 -177.36133 622.84375 C -175.57557 621.67562 -173.80208 620.48987 -172.04883 619.27344 C -171.95053 619.16379 -171.86866 619.09003 -171.76758 618.97461 C -176.3868 618.32984 -175.73801 611.56653 -171.12109 614.76562 C -168.45564 617.40571 -166.95656 609.49824 -169.92578 610 z M -370.94141 610.44141 C -373.49897 610.80413 -373.12056 614.11121 -372.25781 615.39648 C -372.03711 615.56006 -371.81502 615.72 -371.59375 615.88281 C -371.23971 615.89511 -370.90051 615.4916 -370.69727 614.36914 C -371.74241 612.87285 -369.77722 611.32335 -370.94141 610.44141 z M -213.30469 610.96484 C -213.54829 610.95054 -213.87851 610.97765 -214.31836 611.06055 C -214.21309 613.11711 -211.59952 611.06534 -213.30469 610.96484 z M -216.9668 611.06055 C -214.70368 610.91608 -217.49088 613.57586 -216.9668 611.06055 z M -362.61914 613.50977 C -367.05052 615.41037 -359.39766 616.43938 -362.61914 613.50977 z M -356.51758 615.74609 C -360.7359 615.55488 -362.90514 617.67507 -356.84766 619.02344 C -355.40782 621.08678 -352.28044 616.81656 -354.60352 615.97852 C -355.27168 615.8479 -355.91497 615.77341 -356.51758 615.74609 z M -169.84375 616.84766 C -171.84999 618.0899 -171.03321 618.20495 -170.16992 617.94727 C -169.83984 617.71348 -169.50857 617.48161 -169.17969 617.24609 C -169.20119 617.09834 -169.38049 616.95777 -169.84375 616.84766 z M -203.33398 622.03906 C -200.55663 621.85935 -204.34207 624.58236 -203.33398 622.03906 z M -342.74219 627.16211 C -346.17474 628.80892 -352.09964 627.81065 -353.30859 628.09766 C -351.58105 629.13983 -349.84888 630.17323 -348.0957 631.17188 C -347.95487 631.23558 -347.90305 631.26379 -347.75586 631.33008 C -345.96269 631.67408 -334.74522 627.85571 -342.74219 627.16211 z M -233.22266 627.42578 C -234.05164 628.9887 -231.2773 627.38958 -233.22266 627.42578 z M -189.35547 630.11719 C -193.76826 630.39803 -196.09844 633.72215 -192.21484 631.79297 C -191.75041 631.53681 -191.29269 631.2711 -190.83008 631.01172 C -190.35963 630.73237 -189.93972 630.50424 -189.35547 630.11719 z M -212.92969 630.375 C -209.83379 632.60422 -214.87163 634.93082 -212.92969 630.375 z M -207.70312 631.36719 C -206.41266 631.54234 -208.80556 633.7251 -208.49805 631.42969 C -208.14463 631.35369 -207.88747 631.34209 -207.70312 631.36719 z M -221.03906 631.68555 C -220.36008 631.82874 -221.72592 632.9895 -221.46484 631.69727 C -221.27363 631.66607 -221.13606 631.66505 -221.03906 631.68555 z M -228.42578 632.4707 C -226.36497 634.34256 -230.21863 634.13259 -228.42578 632.4707 z M -205.69336 632.48047 C -205.01646 632.62377 -206.37811 633.78094 -206.11719 632.48828 C -205.92651 632.45718 -205.79008 632.45987 -205.69336 632.48047 z M -207.32227 637.86719 C -207.49395 637.83789 -207.74382 637.84902 -208.0957 637.91602 C -208.81099 640.18693 -206.12049 638.07213 -207.32227 637.86719 z M -214.11133 637.95703 C -214.42431 637.93683 -214.83619 637.95548 -215.37695 638.01758 C -214.78173 639.89281 -211.92034 638.09843 -214.11133 637.95703 z M -277.05469 641.9043 C -281.10698 643.46243 -284.16541 641.65938 -287.48633 642.99023 C -289.36207 642.7755 -299.51215 641.84044 -295.41602 643.78125 C -294.38552 644.2387 -292.97581 644.51142 -291.42773 644.66406 C -292.8185 644.66006 -294.1644 644.64956 -295.58789 644.66406 C -294.59894 644.28938 -305.11699 645.19002 -302.29492 643.75781 C -303.08223 641.69922 -311.2965 644.18933 -314.65039 642.77148 C -317.26846 643.18554 -324.25841 643.46694 -318.56445 644.69531 C -318.22398 645.2406 -317.15303 645.87095 -315.6875 646.54492 C -312.65834 647.71666 -309.60803 648.83404 -306.53516 649.88086 C -303.22968 650.9498 -299.99712 651.96667 -297.2168 652.86328 C -290.38034 654.88149 -283.45398 656.56356 -276.4707 657.94531 C -275.32618 658.10972 -274.20303 658.23912 -273.09961 658.33203 C -267.70842 658.22795 -262.37642 657.65063 -257.10156 656.70117 C -252.18371 655.64932 -246.01002 654.20402 -242.25586 652.87695 C -240.40216 652.16275 -235.50691 650.73233 -231.16406 649.32227 C -228.84896 648.46256 -226.54779 647.57928 -224.25781 646.65039 C -223.13309 645.90461 -223.71884 645.42997 -227.54688 645.51758 C -227.86966 645.33122 -228.2617 645.23533 -228.70117 645.20312 C -227.74112 645.09662 -226.76341 645.07355 -225.73242 645.19141 C -223.34077 645.41348 -221.9283 645.41786 -221.05859 645.33984 C -220.74324 645.20776 -220.42228 645.08614 -220.10742 644.95312 C -220.31158 644.73676 -221.12802 644.50161 -222.29297 644.32617 C -221.10411 644.33417 -219.9145 644.34406 -218.72266 644.38086 C -218.34 644.21731 -217.96398 644.04557 -217.58203 643.88086 C -215.71587 642.16495 -228.00558 643.14242 -231.54883 643.06836 C -244.24132 642.80753 -256.95638 643.12913 -269.63281 642.35352 C -274.1356 642.4758 -268.78982 645.75818 -275.30859 644.25391 C -278.67574 644.5705 -282.03362 644.65017 -285.44141 644.66406 C -283.80821 644.53931 -282.24443 644.35824 -281.00977 644.08594 C -277.8952 642.66339 -269.12823 643.82131 -277.05469 641.9043 z M -323.90039 642.75781 C -324.21891 642.71021 -324.5457 642.70648 -324.86914 642.76758 C -324.83394 642.78778 -324.8177 642.7928 -324.7832 642.8125 C -323.82949 643.22698 -322.87296 643.63896 -321.91406 644.04102 C -321.36668 643.99152 -322.49126 642.96845 -323.90039 642.75781 z M -298.83789 642.78516 C -298.93239 642.76686 -299.0696 642.77119 -299.25391 642.80859 C -299.47069 644.14511 -298.17642 642.91318 -298.83789 642.78516 z M -272.53711 644.64062 C -272.44511 644.65382 -272.33154 644.69131 -272.18945 644.76758 C -272.68289 645.75037 -273.18131 644.54825 -272.53711 644.64062 z M -316.60547 644.77734 C -316.20923 644.74344 -315.46456 644.73953 -314.24219 644.79883 C -315.8458 645.23112 -317.79419 644.87904 -316.60547 644.77734 z M -262.38672 644.93945 C -262.22484 644.89905 -261.33734 644.9166 -259.16992 645.05859 C -256.82266 645.70194 -262.87238 645.06064 -262.38672 644.93945 z M -279.92773 645.03125 C -279.52032 644.95805 -279.61144 645.89626 -280.13281 645.13672 C -280.05401 645.07732 -279.98594 645.04173 -279.92773 645.03125 z M -233.75781 646.25781 C -235.82571 646.94815 -237.64142 647.62522 -237.93945 647.04102 C -236.43688 646.88894 -235.08043 646.58187 -233.75781 646.25781 z "
         style="fill:#476889;fill-opacity:1;stroke:none;stroke-width:0.97062314;stroke-miterlimit:4;stroke-dasharray:none;stroke-opacity:1"
         id="path2200-9-2-9"
         d="m -284.45508,413.41797 c -1.49956,4.80738 3.66335,0.33139 0,0 z m 32.48633,0.70898 c -3.73723,0.16791 -3.91725,6.02017 -8.67187,5.75 -0.87622,-1.99373 -1.31186,-2.8127 -2.89649,2.20508 -1.50325,3.07546 -4.9108,0.52745 -7.35742,2.31836 -0.9858,0.95135 -4.06068,-4.07682 -6.55859,-0.14062 -2.4262,4.0926 -6.918,-2.22954 -8.87891,2.20507 -2.75757,2.73741 -6.12409,0.18002 -9.17774,4.16407 -1.34098,0.62645 -6.51393,5.50995 -7.31445,3.03515 3.20745,-5.7095 -1.335,-3.18502 -1.1582,-7.67773 0.47299,-3.32238 -4.91536,0.79037 -7.37696,-0.4043 -0.14325,-1.50331 -0.5218,-2.14463 -1.0332,-2.27344 -0.47099,0.3495 -0.94374,0.69633 -1.43359,1 -1.33866,1.66729 -2.8403,2.80135 -4.43945,3.62305 -1.96376,1.57277 -4.83294,5.75847 -3.47657,1.47266 -0.0695,-0.0578 -0.15692,-0.0914 -0.23047,-0.14453 -2.3863,0.50858 -4.91145,0.5393 -7.46679,0.43554 -0.10791,0.10248 -0.23653,0.19239 -0.32617,0.30469 -0.23226,3.17407 0.4747,6.29932 2.73242,8.97852 -2.13677,-1.12712 -6.89284,1.78757 -3.67383,4.21875 -2.85702,0.99047 -3.72928,5.64117 -6.04297,5.90625 -4.74969,0.63813 -3.21497,-5.37087 -2.32031,-7.95118 1.23108,-2.76138 2.33391,-10.4572 -2.75196,-9.47851 -4.09345,0.77523 -6.86391,-0.0965 -7.00195,4.76367 -4.30072,-3.21129 -3.98347,1.06789 -1.48437,3.70508 0.59391,0.0692 -3.85356,7.50885 -3.58789,7.47265 -2.99059,-4.00765 -0.57814,-8.57062 -0.57032,-11.4414 -4.67719,-1.00343 -2.49014,9.08743 -4.88476,1.25586 3.03547,-4.89773 -2.6966,0.77694 -4.97852,-2.05078 -4.28917,-0.32492 0.98523,-4.88606 -3.60156,-1.41797 -4.60751,3.3299 -5.69611,-0.17229 -9.06445,-1.73242 -1.27949,3.25128 -6.98953,2.96839 -9.56836,4.07812 -4.36247,-3.62405 -1.24993,0.80688 -4.66211,2.9082 -4.81808,-1.17958 -4.26426,7.75549 -7.25,3.47266 -1.94893,-1.82421 -3.18004,-3.77407 -0.0274,-4.66406 2.31457,5.39987 0.74644,-3.82465 -1.82812,-0.85742 0.15585,-5.53759 -4.42161,3.85298 -2.90039,-1.00586 -4.20564,-3.24574 -3.13166,-3.36253 -8.41797,-2.66407 -2.4307,2.01271 -4.27818,3.18371 -5.60352,-0.5 -2.37024,1.75092 -3.20433,7.12532 -7.37109,4.41407 -1.56651,-4.05201 -4.30259,-5.23312 -6.42383,-1.99024 -3.62055,-0.22845 -3.93347,-0.1669 -5.72851,-2.48633 2.2413,4.23877 -3.04282,5.55204 -5.85743,5.48633 -3.15392,1.25732 -8.47374,3.41127 -3.81054,-1.11914 0.44206,-0.59507 0.68012,-1.02261 0.77929,-1.33203 -1.44877,0.76491 -2.99251,1.43916 -4.58984,2.05078 -0.41576,0.53628 -0.53554,1.0068 -0.041,1.22852 2.12624,3.15299 -5.33185,1.36115 -6.67968,1.71289 -2.33728,-1.33322 -2.45734,5.58242 -5.53516,3.13672 0.0293,1.63331 -1.96814,1.01288 -4.14453,0.88672 -1.58636,1.25499 -2.77224,2.76186 -3.33203,4.68164 0.17975,1.67785 0.38814,3.38363 0.61719,5.1289 -0.003,-0.1846 0.10764,-0.41988 0.51953,-0.73633 1.41946,1.11252 -0.22595,1.37984 -0.50196,0.88086 0.37603,2.85042 0.79659,5.74665 1.30664,8.67383 1.04906,5.55833 2.30236,11.07095 3.74415,16.5332 1.32599,4.63871 2.83693,8.98017 4.58398,12.65235 -0.17085,0.66904 -0.2315,1.37138 -0.19531,2.08984 0.62055,1.86038 1.26828,3.71211 1.93359,5.55664 0.73292,1.1156 1.55687,2.01592 2.33594,2.38477 -0.61162,0.33546 -0.79651,1.07485 -0.72461,1.96484 0.53292,1.39386 1.07453,2.7842 1.63281,4.16797 0.85008,1.24245 1.79974,1.99956 2.29102,1.20899 -0.28862,1.54304 -0.13029,3.22159 0.3125,4.98242 1.76265,4.04619 3.63837,8.0429 5.61523,11.98828 1.95481,3.38702 3.89938,6.72887 5.16992,9.75976 0.4311,0.7724 0.84974,1.55061 1.28907,2.31836 6.20546,10.84425 13.2409,21.21003 21.00781,30.99414 2.04201,-4.64815 8.83951,3.77719 9.46875,-1.48632 1.36265,-5.13114 5.08607,-0.0992 6.76172,-2.27735 5.08608,-3.2403 6.32637,5.8245 7.76172,-1.16406 3.24484,4.07605 2.12955,1.51874 5.97265,-0.5625 3.52247,2.13317 9.27092,4.06471 12.89453,2.45898 0.23096,-5.39459 4.04963,4.63127 7.13282,0.22266 2.828,0.76058 6.74348,-0.1098 9.05664,2.98633 2.61622,-0.38502 8.55501,-2.14321 8.61133,1.53125 4.03411,-1.14572 8.50931,-1.73749 12.55078,0.75 4.02861,-0.99567 6.55605,-4.05011 10.99218,-4.25391 3.43854,2.59828 2.03091,8.41773 9.13868,6.20508 0.46622,3.8714 -0.003,8.43658 3.8457,9.27734 -6.15448,2.73043 3.66162,3.15515 2.70312,-1.61718 3.28687,0.18643 6.82334,1.30049 9.60352,3.77343 1.60236,1.77139 7.12312,6.2776 8.22656,1.95313 4.9455,-2.73576 3.45539,2.62505 1.51172,5.41016 0.50424,8.57408 1.4324,-2.13591 5.20898,-3.16407 -1.73559,-5.66388 6.24833,2.55776 5.42188,-1.5 4.6251,-1.24852 -1.35253,-9.83817 4.7168,-8.65039 6.8191,0.56356 0.5732,-3.81881 3.48437,-6.73242 0.47521,-5.74639 4.49821,-5.92277 5.66211,-0.44141 3.18427,2.55884 1.24402,6.73854 4.39453,6.44532 0.83006,5.59613 1.97115,8.82115 7.00977,10.00195 2.03414,4.10182 0.0258,9.28678 1.12304,13.21094 1.66017,-3.93869 0.24428,-10.97585 0.72852,-16.09766 1.02322,-5.75928 -1.96064,-11.39765 -0.26367,-16.85156 1.89374,0.18557 1.37417,1.92344 5.73437,2.07226 4.73504,-0.55071 4.04649,1.1989 1.83399,-2.44922 4.08613,0.0642 7.19159,2.06484 11.0332,1.25391 3.20849,5.87106 0.99507,13.28566 1.90625,19.76953 2.66008,-0.0278 8.97218,4.89788 7.11328,-0.88476 -4.73864,-2.25324 2.89948,-4.14115 5.20508,-4.47852 2.77538,3.88096 6.27153,-0.11293 9.67969,-1.21875 2.81299,-5.65432 8.73054,-1.2174 12.59961,-0.16406 4.33854,3.55823 6.70097,-1.18216 2.57226,-0.41797 1.27369,-3.60618 5.86458,-2.39851 7.27735,-6.39648 5.19545,-1.76781 4.29714,5.05455 4.36718,7.73437 -0.53434,4.7178 1.12285,7.00967 1.0586,10.71875 -2.27045,-1.07413 -0.27652,3.60429 0.44336,4.66406 -2.17623,3.99715 4.45708,-0.56333 2.54883,-2.16797 0.5964,-2.77229 -1.69933,-6.01734 0.44726,-8.64648 -1.17182,-2.82899 0.85221,-5.38111 -0.32031,-8.15234 -0.4404,-2.76534 0.81241,-5.87602 -0.55274,-8.12305 1.93705,-2.59629 -1.04466,-6.31244 1.16211,-7.90039 1.7035,-4.56595 6.54689,-4.41392 5.51368,-4.18164 4.34537,1.95302 -0.17408,-3.48739 3.1621,-2.79688 0.62096,0.74168 5.66739,-1.09626 3.17774,-4.09961 2.55827,0.6117 2.04465,-1.44628 3.16797,-4.31836 1.0657,0.36272 10.04828,-1.16723 7.77148,3.35938 4.00558,0.27144 3.19734,5.53717 7.49024,5.5918 2.99017,2.30882 0.0235,7.52697 1.70507,11.14648 4.6043,-0.88939 3.7584,9.26391 4.09571,6.30078 1.8816,-2.10044 6.39569,-1.13326 8.45898,-2.87304 1.56878,1.85825 3.71463,2.31605 4.11328,-0.13282 2.70455,-0.54959 4.69978,-0.98253 6.25586,0.77735 3.63575,0.55464 3.73893,-1.4858 6.75586,-3.8418 6.25413,-7.91478 12.04215,-16.19722 17.30274,-24.80664 0.42108,-0.69306 0.83364,-1.3888 1.24804,-2.08594 0.76982,-1.28772 1.526914,-2.58548 2.273441,-3.88672 0.792593,-1.3892 1.577666,-2.78334 2.34375,-4.1875 0.256072,-0.46685 0.506683,-0.93583 0.759766,-1.40429 11.058875,-20.57904 19.266113,-42.70665 24.082031,-65.58008 -5.292007,-3.00514 -0.958085,-6.30614 1.982422,-10.81446 1.179562,-7.45129 1.989802,-14.96829 2.412109,-22.52539 -0.451897,-1.90237 -1.692285,-2.14357 -4.498047,1.41407 -1.332172,-4.03094 -4.713708,-0.32624 -3.503906,-5.69141 -1.09487,3.16825 -4.910365,-0.51256 -6.878906,0.86328 0.102351,-2.61712 -1.686299,6.28812 -3.257812,-0.77734 -4.452933,-0.2038 -1.086674,3.74975 -1.490235,5.80664 -3.465325,0.0623 -2.588147,-1.80639 -4.394531,-2.0293 -3.762457,-0.37179 -4.181067,3.18554 -8.59375,2.48828 -2.675962,-3.5171 -1.813942,-8.51924 -5.185542,-7.69726 -2.69826,1.96137 -6.9185,1.88597 -10.36133,0.44531 -2.39098,0.66406 -8.82503,-2.2055 -8.39063,1.73242 2.42605,-0.0415 1.419,3.94379 5.39649,2.51367 -1.01492,5.17392 -5.22157,-0.66371 -6.88086,-0.95898 -0.44473,-7.49121 -0.38174,-0.87984 -2.41602,0.49609 -2.43691,-2.01153 -0.80587,-5.4342 -4.16797,-0.73633 3.92657,1.5993 -0.6639,8.10245 -4.93359,3.59571 -4.04249,-2.77989 3.24545,-5.99213 5.75195,-7.49219 5.77345,-0.77206 -1.83272,-2.85279 -3.72461,-2.4043 -3.49336,2.74942 -3.31254,4.67543 -2.93164,-0.56836 -3.34541,-1.89553 -3.55895,4.5564 -6.00976,0.0957 -0.41561,0.99333 2.88776,7.45048 -2.20508,3.82226 -3.08721,0.80572 -2.42273,-6.35005 -4.81445,-4.28125 3.48636,7.31095 -2.29011,-2.67938 -2.27735,-0.44531 -2.76908,5.9449 -2.10232,2.13447 -5.49414,-1.74219 -5.25222,2.14159 -2.93,5.03844 0.44727,4.11914 -2.28845,4.25816 -6.33302,3.6426 -8.6836,4.92383 -0.31286,-4.35015 -6.14294,-3.23352 -6.52734,0.49024 -2.88913,2.99365 -3.61433,-4.42995 -4.8457,-6.64649 -4.77157,0.86432 2.46267,-6.61767 -1.57032,-6.85547 -3.52073,2.00224 -1.47669,6.22129 -4.13672,9.25977 -2.72726,-3.56552 -2.96675,-3.57908 -6.22851,-4.23242 -2.77631,-3.28951 -4.85501,-5.39428 -6.64258,0.39648 0.48508,3.12177 -4.43577,5.65611 -5.9707,3.39649 -2.84941,-2.52567 -8.34116,-3.8e-4 -8.25,-4.39649 -0.34978,-7.61036 2.46658,4.66049 2.3164,-1.62695 4.33837,-0.37126 5.12141,-7.42495 0.3086,-4.42383 -2.61036,1.45409 -5.2967,0.93058 -6.67188,5.25 -2.92118,3.54896 -3.43663,-4.40788 -6.88281,-1.39063 -4.31789,-3.5631 -4.16579,3.85341 -7.71289,0.41407 -2.0838,0.29268 -6.69693,0.82583 -1.66016,3.17187 4.47238,1.60952 -0.24043,4.66618 5.40821,2.26563 -0.61507,-4.60179 5.8867,-0.72338 2.92773,1.24023 4.29701,-0.19868 2.52241,0.94566 5.76563,1.52344 4.82693,0.32404 2.44111,0.84529 2.6621,3.70508 4.17608,-3.62599 3.89959,3.28813 -0.62109,1.93554 -1.78366,1.37633 -8.23327,-2.84344 -6.43555,-5.4375 -1.66879,-0.51192 -4.85642,4.7533 -5.61523,7.34766 -1.08922,-1.22206 -0.6351,-9.87257 -7.05078,-6.28711 -3.91474,-1.09302 -4.70043,4.03624 -8.54492,0.86328 0.95925,-4.98876 -5.57503,-2.80917 -3.9375,-6.96094 -0.92741,1.4743 -10.25886,1.05176 -6.41407,-0.46289 5.99608,-2.38545 -2.66043,-6.40271 1.87891,-8.68164 -0.003,-0.90168 0.29445,-1.60877 -0.86914,-1.71875 z m -51.29883,0.004 c -0.14077,0.15692 -0.28545,0.30543 -0.42578,0.46289 0.23061,-0.092 0.38727,-0.24918 0.42578,-0.46289 z m 62.9707,0.041 c -3.03681,1.31412 4.25914,2.87988 0.81446,0.42187 z m -40.49609,0.041 c -6.16086,3.39009 1.05591,2.06253 0,0 z m 33.70703,0.56445 c -0.12166,-0.01 -0.26235,0.0158 -0.43359,0.0937 -0.40404,2.89065 -2.2356,6.77094 1.28906,7.01563 -0.70352,3.22998 7.95829,4.79999 1.57617,0.38086 1.40537,-0.51578 5.19729,0.27287 7.58985,-1.56836 3.60767,6.17298 2.82039,-4.09496 -2.70313,-2.08203 -2.49058,2.99027 -3.40788,-3.27876 -5.73828,-2.25391 -0.92972,0.39882 -0.72838,-1.51823 -1.58008,-1.58594 z m 5.28321,1.02149 c -1.15182,2.05077 1.78502,0.27746 0,0 z m 20.19726,0.39648 c -2.04943,0.32727 0.9709,2.19968 0,0 z m -83.69531,0.19922 c -0.54354,0.61176 -1.08929,1.2262 -1.63672,1.82227 0.37846,2.87415 5.43098,6.63603 3.07617,1.63281 -1.63063,-0.6798 -0.0415,-3.00818 -1.43945,-3.45508 z m 20.66016,0.99219 c -6.21056,1.75504 -4.53004,4.22524 0.39062,1.17578 1.02433,-0.38039 0.60259,-1.43858 -0.39062,-1.17578 z m 65.01367,0.26367 c -0.61716,3.64202 5.22474,2.62721 0,0 z m -48.89649,0.79492 c -3.0395,2.71132 3.53938,0.34233 0,0 z m 13.10547,0.25391 c 6.67759,1.14935 -5.48128,4.93353 0,0 z m 24.5625,0.4043 c -0.91559,3.07292 3.9403,0.19542 0,0 z m 42.74609,1.00586 c -5.35278,0.68981 1.8286,1.43689 2.04883,2.08203 0.32123,-0.87978 -1.57193,-1.15588 -2.04883,-2.08203 z m -105.8496,2.03515 c -1.34908,3.74066 -5.07137,1.63825 -7.35743,1.32422 -1.2365,2.73678 4.4874,3.2682 5.76563,2.42187 2.9574,0.64155 6.05519,-3.79369 1.5918,-3.74609 z m 35.27343,0 c 0.3872,1.41047 -4.00891,0.21432 0,0 z m 89.34375,0 c 2.00485,3.71904 6.09238,2.03189 0.51953,0 z m -22.52929,1.46094 c 2.56415,2.51265 -3.20024,2.74237 0,0 z m -82.50977,0.0859 c -0.13414,2.74192 -2.14025,1.50073 0,0 z M -212.7793,424 c 4.0791,1.92268 -6.4196,2.91485 -0.15039,0.55078 z m -3.88476,0.99023 c 2.40816,-0.008 -1.33241,4.66329 -0.56836,0.0684 0.21832,-0.0463 0.40783,-0.0678 0.56836,-0.0684 z m -60.07032,0.0684 c 1.00692,0.35879 -0.98907,1.01633 0,0 z m -37.62109,0.27344 c 3.58153,1.36178 -0.81843,2.5186 0,0 z m 94.21289,0.25391 c 2.55087,-0.15473 -0.52067,2.71015 0,0 z m -18.26758,0.22265 c -3.13598,2.06402 2.71335,5.46554 0,0 z m -30.41211,0.27735 c 1.44852,0.51236 -0.37895,1.05278 0,0 z m 94.59766,0.26953 c -0.0893,-0.0259 -0.22173,-0.0218 -0.4082,0.0273 -0.43426,1.81716 1.03379,0.15391 0.4082,-0.0273 z m -133.79101,0.1582 c 4.87166,-0.33897 1.20107,5.29099 0.56054,7.67774 -1.64307,5.45897 -1.23179,-3.44824 -2.11719,-5.00977 1.70023,-0.72039 0.20892,-1.29473 1.55665,-2.66797 z m 141.63281,0.3418 c -2.03678,2.76445 1.92278,2.19712 0,0 z m -117.73633,0.008 c 0.95209,0.12603 -0.71784,1.65526 -0.58008,0.0469 0.25602,-0.0524 0.44409,-0.0649 0.58008,-0.0469 z m 90.70117,0.20508 c 1.34371,0.87959 -0.63549,1.89965 0,0 z m -119.59375,0.0645 c 2.18756,0.4173 -0.58764,2.52819 0,0 z m 160.62305,0.041 c 3.27842,0.52701 -1.84058,3.96198 0,0 z m 18.5332,0 c 2.58088,-0.0709 -1.00167,1.92357 0,0 z m -148.0957,0.24023 c 1.01813,0.12231 -0.91444,1.34639 -0.62891,0.0234 0.28109,-0.0383 0.48346,-0.0409 0.62891,-0.0234 z m 69.33008,0.53711 c 1.01643,0.21497 -1.03407,1.95565 -0.64258,0.0176 0.28629,-0.0467 0.49738,-0.0483 0.64258,-0.0176 z m 64.22461,1.08985 c 5.91464,5.10561 -3.34344,1.78625 0,0 z m -278.4961,0.17773 c -4.05714,4.60477 1.92886,1.86117 0,0 z m 245.62891,0.21875 c 2.41895,7.71119 -11.29715,1.2223 0,0 z m -29.61914,0.0859 c 1.45408,0.50984 -0.37971,1.05054 0,0 z m -227.28321,0.44531 c -0.35381,0.23794 -0.72278,0.4472 -1.06836,0.69922 -0.0116,0.0168 -0.0294,0.0302 -0.041,0.0469 0.41958,0.98207 3.8324,0.0926 1.10937,-0.74609 z m 347.355473,0.0176 c -0.845609,0.62624 0.920313,0.71085 0.560547,0.0469 -0.186997,-0.0156 -0.375056,-0.0282 -0.560547,-0.0469 z m -241.982423,0.0195 c -2.95476,2.2353 3.76825,2.40355 0,0 z m 5.49414,0.041 c 2.5407,0.54655 0.69414,4.37936 0,0.51367 z m 229.648439,0.19531 c -3.008789,2.37451 5.134625,1.39781 0,0 z m -215.199219,0.0723 c 0.99871,0.34454 -1.47598,3.28103 -0.66016,0.0371 0.30417,-0.0821 0.51747,-0.0863 0.66016,-0.0371 z m 103.82227,1.35938 c 4.0525,0.27483 -0.64645,3.58721 0,0 z m 68.32422,0 c 2.60836,0.15285 -2.12065,2.86766 0,0 z m -36.26954,0.52734 c 3.60647,1.01715 -2.65954,4.704 0,0 z m -162.75976,0.23633 c 1.82722,1.15403 -2.15106,1.76645 0,0 z m 182.85937,0.25 c 4.02544,-0.0436 4.89812,2.64792 2.81055,4.48242 6.78446,4.65391 -1.60541,2.03543 -3.98828,0.53125 -7.62798,-1.54109 2.76229,-2.4171 -0.2168,-3.56445 -0.85916,0.45906 -1.23153,-0.80786 -0.52539,-1.25391 0.70431,-0.12836 1.34484,-0.18908 1.91992,-0.19531 z m -228.10742,0.46289 c -2.7949,2.19508 2.26275,2.23483 0,0 z m 235.13086,0.1543 c 2.42107,1.76619 -5.83733,4.23761 0,0 z m -166.40625,0.20508 c 1.00552,0.37868 -1.85946,3.22756 -0.69336,0.0137 0.32455,-0.0716 0.54972,-0.0679 0.69336,-0.0137 z m 170.0625,0.52734 c 7.73511,1.39066 -1.19721,5.8175 -1.87695,1.53711 -0.19252,-1.67297 0.68548,-1.42155 1.87695,-1.53711 z m -23.64648,0.28125 c 2.49195,-0.28584 -1.17641,2.56575 0,0 z m 7.11523,0.48242 c 2.47846,0.92651 -1.02691,2.91135 0,0 z m -280.95898,0.0449 c -1.28643,2.39354 1.91164,0.64998 0,0 z m 364.037106,1.32422 c 1.528901,-0.0562 -0.381455,1.8415 0,0 z m -283.863286,0.47656 c 6.65753,2.10398 0.87599,8.24695 -0.0371,4.68164 1.90515,0.39133 -2.45406,-4.10167 0.0371,-4.68164 z m 268.810551,0.0137 c 2.756174,2.33105 -4.63696,2.17484 -0.04102,0.0273 z m -46.828121,0.041 c 4.42181,0.4341 -0.35536,3.44692 0,0 z m -268.90039,0.4961 c 7.48006,2.53647 -6.08886,5.32497 0,0 z m 102.49804,0.0547 c 4.22564,2.84252 -5.82341,0.63264 0,0 z m -120.95508,0.11719 c 3.37862,1.86287 -2.24894,2.86416 0,0 z m 103.44141,0.082 c 2.58138,0.32225 -0.55803,3.28282 0,0 z m 209.70898,0.0312 c 0.67696,0.14342 -0.68677,1.30129 -0.42578,0.01 0.19068,-0.0311 0.32909,-0.0304 0.42578,-0.01 z m -318.94726,0.01 c 2.74502,0.30174 4.63517,2.30366 8.43164,3.13281 7.25646,1.39632 -0.94319,0.94411 -0.85156,4.14453 -1.47557,2.18153 -3.38742,-1.08641 -5.10547,-3.17773 -1.45897,0.68808 -2.39937,-2.9868 -2.47461,-4.09961 z m 84.03906,0 c 2.55536,0.41476 -0.11369,3.59733 0,0 z m 263.904299,0.19922 c 3.395647,2.61736 -1.314654,-0.13932 0,0 z m -256.523439,1.65625 c 3.45754,0.86509 -4.14912,5.87306 0,0 z m 216.61133,0.27148 c 2.24857,1.50217 -2.50701,2.66495 0,0 z m -209.40234,0.47266 c -2.76331,0.48896 2.63019,2.30971 0,0 z m 8.23242,0.57422 c 4.53519,0.88059 -4.17481,5.76596 -0.24024,0.48046 z m 212.50195,0.28515 c 0.16594,0.099 0.0835,0.50665 -0.24805,0.0449 0.11081,-0.0806 0.19274,-0.0778 0.24805,-0.0449 z m -278.38672,0.0371 c 3.04223,0.0596 8.27573,6.45605 3.11719,3.11914 -3.62128,0.51885 -4.41575,2.36028 -3.69336,-3.04297 0.17956,-0.0571 0.37336,-0.0802 0.57617,-0.0762 z m 26.79102,0.44922 c 3.02853,2.19829 -4.75357,4.53647 -0.0996,0.0781 z m 263.15429,0.55469 c 3.03514,2.05426 -3.86319,3.28254 0,0 z m -343.20117,0.21875 c 3.78214,0.20398 4.40149,7.84685 0.81055,6.70898 -3.01825,-1.43852 -4.41113,-0.40504 -2.06445,-5.12304 0.13764,-0.61857 -0.32953,-1.30496 0.45312,-1.52149 0.27992,-0.0573 0.54864,-0.0781 0.80078,-0.0645 z m 82.35547,0.57226 c 3.25519,0.30025 -0.28089,3.87247 0,0 z m 17.18359,0.0234 c 3.27905,4.01303 -2.68953,1.16283 0,0 z m -111.84374,2.0957 c 4.51064,2.298 2.95856,3.5388 -0.96876,4.23243 -3.69661,-1.5724 -0.24016,-2.92101 0.96876,-4.23243 z m 11.57226,0.43164 c -1.70887,1.35445 1.05917,1.433 0,0 z m -4.43555,2.47657 c 1.38033,3.77762 -1.90416,5.23498 0.60743,9.5332 -2.09882,3.29515 -1.06089,-4.98513 -5.42188,-4.46289 2.55232,-2.7088 1.60434,-2.35163 4.74219,-4.94727 z m 86.17579,1.56054 c 1.7996,-0.0504 -0.95636,2.86534 -1.07422,0.22657 0.46385,-0.15317 0.81713,-0.21938 1.07422,-0.22657 z m -96.5625,4.86914 c 4.73799,-0.0824 4.11784,5.74909 6.26367,5.64063 -0.53964,4.18884 0.22313,9.17624 -5.17774,7.04687 -1.11019,-3.83216 -2.87419,-7.05011 -3.38086,-8.53711 -4.87695,-1.58616 1.89597,-1.88079 2.29493,-4.15039 z m -3.94532,7.4961 c 1.79205,1.28572 -1.27389,1.5697 0,0 z m 2.08008,2.3457 c 1.90365,3.87533 -4.92,1.12791 -0.95508,1.26367 l 0.48047,-0.63281 z m 0.61719,5.88672 c 1.54577,2.1458 -2.20391,1.59727 0,0 z m 7.55273,0.27734 c 6.89152,2.41034 -0.91383,5.66974 -0.52929,0.53125 z m -2.58398,3.17188 c 1.2742,6.27299 -7.43409,0.30223 -0.46289,0.20508 z m 1.9414,2.36523 c 0.23352,-0.005 0.51939,0.0113 0.86329,0.0488 3.76567,4.41736 -4.36604,0.0233 -0.86329,-0.0488 z m -6.9707,1.13086 c 4.15617,0.22147 0.73057,4.20207 0,0 z m 7.89453,1.56446 c 1.23663,3.54322 -2.88817,2.725 0,0 z m -6.83398,3.99609 c 2.42666,-0.32073 -0.38459,2.34315 0,0 z m 39.68555,46.96289 h 0.006 v 0.92383 h -0.006 z m 12.30468,20.21094 c 1.78187,0.53369 1.61189,4.48052 0,0 z m 240.27735,3.92773 c 0.18774,0.0838 -0.75409,0.72877 -0.15821,0.006 0.0807,-0.0165 0.1314,-0.0174 0.15821,-0.006 z m -243.78321,5.60938 c 5.16531,5.11201 -7.04676,3.05308 -1.37109,0.20898 0.45681,-0.0703 0.91416,-0.13943 1.37109,-0.20898 z m -1.45703,0.63672 c -2.43862,0.38574 2.34216,3.67504 1.52344,0.041 -0.68046,-0.0921 -1.17507,-0.0961 -1.52344,-0.041 z m 74.4336,0.16015 0.11718,0.67774 h -0.004 z m -73.57032,0.27735 c 1.52797,-0.0566 -0.38059,1.84648 0,0 z m 244.20899,0.52734 c -0.70479,4.65791 1.84203,1.92406 0,0 z m -220.43555,0.16211 c 4.11432,1.04361 -1.86721,2.54409 0,0 z m 11.57227,3.91992 c 3.43304,0.14952 -1.32218,3.37141 -2.00977,0.1543 0.86031,-0.13165 1.51933,-0.17566 2.00977,-0.1543 z m -21.53321,1.74024 c -5.18329,4.05821 9.02711,-0.26018 0,0 z m -4.1582,1.02734 c 0.55399,1.99731 2.28083,0.1916 0,0 z m -0.89258,0.0332 c -0.86328,3.37978 1.80901,-0.10102 0,0 z m 2.42969,1.32227 c -3.50289,3.19568 5.21428,1.02062 0,0 z m 7.50976,0.0586 c -16.76661,3.71696 9.09817,2.64663 0,0 z m 58.48047,1.8086 c 1.39594,1.32461 -1.39729,0.66024 0,0 z m -78.50781,0.50976 c -0.30433,2.25587 1.50925,-0.32939 0,0 z m 6.99219,0.52344 c -0.22022,-0.0174 -0.47592,0.0444 -0.6875,0.008 -3.14268,3.79366 1.82211,5.96056 1.1582,0.46484 -0.067,-0.35625 -0.25047,-0.45524 -0.4707,-0.47265 z m -4.45313,1.0625 c -0.0954,-0.0347 -0.23123,-0.0355 -0.41992,0.006 -0.26688,1.96695 1.08806,0.23738 0.41992,-0.006 z m 1.82422,0.14648 c -0.1078,0.007 -0.24817,0.0437 -0.42578,0.12305 0.3677,1.27033 1.18039,-0.16867 0.42578,-0.12305 z m 9.07813,0.0899 c -3.38231,1.84853 5.31685,1.75484 0.0957,0.041 z m 259.17187,0.33203 c -0.0814,1.20574 -1.00489,-0.137 0,0 z m -271.62695,0.77344 c -0.1779,0.0771 -0.27602,0.15872 -0.32617,0.24023 0.14291,0.17191 0.2824,0.34804 0.42578,0.51953 0.30922,0.066 0.55251,-0.0939 -0.0996,-0.75976 z m 267.36914,0.20898 c -3.54552,2.80284 0.42483,3.18194 2.29883,4.33203 -2.0898,1.74689 -1.12813,2.62846 0.61133,0.56445 -0.85541,-2.87224 -3.63259,-2.06511 -2.91016,-4.89648 z m -265.72656,0.30469 c -1.16014,3.74199 3.01311,0.0559 0,0 z m 275.74609,0.47656 c -2.55671,-0.23161 1.34717,0.83955 0,0 z m -13.42773,0.041 c -0.14274,-0.0436 -0.34786,-0.0459 -0.62891,0.0137 -0.37787,2.62676 1.62801,0.29151 0.62891,-0.0137 z m 1.20312,2.39258 c -5.85298,2.84683 6.66352,2.19647 0,0 z m -2.0957,2.60352 c -2.01496,0.37715 0.4429,1.66932 0,0 z M -394.625,587.7168 c -2.9222,2.16242 -2.53816,5.50422 -0.80078,8.25976 1.44077,1.35943 2.89678,2.69985 4.37109,4.02344 2.80966,1.39709 5.76904,0.94648 6.6211,-3.45898 -1.70077,-4.14763 -5.70118,-8.03971 -10.19141,-8.82422 z m 252.2793,0.74023 c -0.44921,-0.0204 -1.05708,0.0106 -1.85938,0.11328 0.35967,2.63628 5.00373,0.0294 1.85938,-0.11328 z m -9.34961,2.76367 c -0.80404,2.59732 -0.91947,6.80708 -0.01,8.99219 0.47284,-2.11229 0.69263,-6.55284 0.01,-8.99219 z m 8.63086,0.36524 c -0.27298,0.002 -0.6451,0.048 -1.14063,0.1582 0.069,1.99582 3.05154,-0.1745 1.14063,-0.1582 z m -5.8125,0.65429 c -0.14189,-0.0274 -0.34244,-0.025 -0.61914,0.0312 -0.32514,2.00608 1.61228,0.16049 0.61914,-0.0312 z m 5.70312,2.44532 c -0.24261,0.008 -0.57769,0.0702 -1.03125,0.20507 -0.18744,2.25229 2.72939,-0.26377 1.03125,-0.20507 z m -6.17773,4.16406 c -0.8287,1.56083 1.94444,-0.0372 0,0 z m -58.26367,0.75977 c -0.25014,-0.0186 -0.5497,-0.006 -0.90625,0.041 -2.50566,4.47462 3.86733,6.64735 1.18554,7.79102 -1.84666,1.92057 1.66419,2.15747 -0.96875,4.54492 1.18118,-0.19288 0.26819,7.35204 -2.44336,9.49805 -1.3984,3.06965 -2.01854,-5.46242 -6.04687,-3.2793 -6.80087,-3.67975 -1.83526,2.45653 -6.38086,1.93359 1.87933,2.09941 -5.34525,0.62761 -5.20508,4.14453 -7.0872,0.49275 2.13224,8.13221 -3.91797,7.67383 -0.0343,-6.05246 -5.38102,0.40058 -3.11523,3.72266 3.01961,-0.3724 6.9485,2.46019 8.78906,-1.0625 4.52127,1.23467 4.05897,-6.44996 5.13672,0.75781 5.07905,-0.25035 5.21459,-2.90131 8.76758,-0.4668 2.33275,0.626 9.37466,2.24947 9.51172,-0.95898 0.52385,-3.61665 1.54871,0.59937 3.24218,1.93164 1.04088,-0.52258 2.07122,-1.06111 3.10352,-1.59961 0.20839,-0.37286 0.41889,-0.77986 0.63867,-1.2832 -0.83351,-4.91841 -4.86101,4.96619 -3.54297,-2.93164 -1.85584,-4.56067 0.45053,-3.09215 -0.11328,-7.81446 1.01047,-3.33099 -0.76857,-6.05857 -4.24219,-6.33203 -7.44565,-0.2193 6.86553,-0.70905 4.25,-4.41015 0.58041,-4.95178 -0.64038,-10.63402 -6.26757,-8.30079 -0.34436,-1.82951 0.27626,-3.46971 -1.47461,-3.5996 z m -173.25977,1.76367 c -2.30764,1.766 8.18617,-0.24809 0,0 z m 228.78906,0.16211 c -1.9053,5.04547 2.88253,-0.28521 0,0 z m -224.16015,3.67382 c -1.50631,0.5182 0.46224,1.70621 0,0 z m 160.49218,1.01758 c -0.21612,0.006 -0.67135,0.25667 -0.70117,0.0684 2.46829,5.32649 -4.84183,0.9009 -3.76953,6.16992 -3.69795,4.52552 5.46839,3.40936 7.22656,2.03711 -3.66326,-0.0194 -2.17867,-4.94564 -2.64257,-8.16992 0.005,-0.0785 -0.0412,-0.10731 -0.11329,-0.10547 z m 46.41211,0.33203 c -0.75246,2.92848 1.48235,-0.42491 0,0 z M -360.27344,610 c -3.50395,2.71437 3.02428,2.80514 0,0 z m 190.34766,0 c -1.69685,3.0753 -8.17319,1.96657 -7.17383,4.81055 -1.04864,1.38036 -2.26586,7.34635 -0.26172,8.0332 1.78576,-1.16813 3.55925,-2.35388 5.3125,-3.57031 0.0983,-0.10965 0.18017,-0.18341 0.28125,-0.29883 -4.61922,-0.64477 -3.97043,-7.40808 0.64649,-4.20899 2.66545,2.64009 4.16453,-5.26738 1.19531,-4.76562 z m -201.01563,0.44141 c -2.55756,0.36272 -2.17915,3.6698 -1.3164,4.95507 0.2207,0.16358 0.44279,0.32352 0.66406,0.48633 0.35404,0.0123 0.69324,-0.39121 0.89648,-1.51367 -1.04514,-1.49629 0.92005,-3.04579 -0.24414,-3.92773 z m 157.63672,0.52343 c -0.2436,-0.0143 -0.57382,0.0128 -1.01367,0.0957 0.10527,2.05656 2.71884,0.005 1.01367,-0.0957 z m -3.66211,0.0957 c 2.26312,-0.14447 -0.52408,2.51531 0,0 z m -145.65234,2.44922 c -4.43138,1.9006 3.22148,2.92961 0,0 z m 6.10156,2.23632 c -4.21832,-0.19121 -6.38756,1.92898 -0.33008,3.27735 1.43984,2.06334 4.56722,-2.20688 2.24414,-3.04492 -0.66816,-0.13062 -1.31145,-0.20511 -1.91406,-0.23243 z m 186.67383,1.10157 c -2.00624,1.24224 -1.18946,1.35729 -0.32617,1.09961 0.33008,-0.23379 0.66135,-0.46566 0.99023,-0.70118 -0.0215,-0.14775 -0.2008,-0.28832 -0.66406,-0.39843 z m -33.49023,5.1914 c 2.77735,-0.17971 -1.00809,2.5433 0,0 z m -139.40821,5.12305 c -3.43255,1.64681 -9.35745,0.64854 -10.5664,0.93555 1.72754,1.04217 3.45971,2.07557 5.21289,3.07422 0.14083,0.0637 0.19265,0.0919 0.33984,0.1582 1.79317,0.344 13.01064,-3.47437 5.01367,-4.16797 z m 109.51953,0.26367 c -0.82898,1.56292 1.94536,-0.0362 0,0 z m 43.86719,2.69141 c -4.41279,0.28084 -6.74297,3.60496 -2.85937,1.67578 0.46443,-0.25616 0.92215,-0.52187 1.38476,-0.78125 0.47045,-0.27935 0.89036,-0.50748 1.47461,-0.89453 z m -23.57422,0.25781 c 3.0959,2.22922 -1.94194,4.55582 0,0 z m 5.22657,0.99219 c 1.29046,0.17515 -1.10244,2.35791 -0.79493,0.0625 0.35342,-0.076 0.61058,-0.0876 0.79493,-0.0625 z m -13.33594,0.31836 c 0.67898,0.14319 -0.68686,1.30395 -0.42578,0.0117 0.19121,-0.0312 0.32878,-0.0322 0.42578,-0.0117 z m -7.38672,0.78515 c 2.06081,1.87186 -1.79285,1.66189 0,0 z m 22.73242,0.01 c 0.6769,0.1433 -0.68475,1.30047 -0.42383,0.008 0.19068,-0.0311 0.32711,-0.0284 0.42383,-0.008 z m -1.62891,5.38672 c -0.17168,-0.0293 -0.42155,-0.0182 -0.77343,0.0488 -0.71529,2.27091 1.97521,0.15611 0.77343,-0.0488 z m -6.78906,0.0898 c -0.31298,-0.0202 -0.72486,-0.002 -1.26562,0.0605 0.59522,1.87523 3.45661,0.0809 1.26562,-0.0605 z m -62.94336,3.94727 c -4.05229,1.55813 -7.11072,-0.24492 -10.43164,1.08593 -1.87574,-0.21473 -12.02582,-1.14979 -7.92969,0.79102 1.0305,0.45745 2.44021,0.73017 3.98829,0.88281 -1.39077,-0.004 -2.73667,-0.0145 -4.16016,0 0.98895,-0.37468 -9.5291,0.52596 -6.70703,-0.90625 -0.78731,-2.05859 -9.00158,0.43152 -12.35547,-0.98633 -2.61807,0.41406 -9.60802,0.69546 -3.91406,1.92383 0.34047,0.54529 1.41142,1.17564 2.87695,1.84961 3.02916,1.17174 6.07947,2.28912 9.15234,3.33594 3.30548,1.06894 6.53804,2.08581 9.31836,2.98242 6.83646,2.01821 13.76282,3.70028 20.7461,5.08203 1.14452,0.16441 2.26767,0.29381 3.37109,0.38672 5.39119,-0.10408 10.72319,-0.6814 15.99805,-1.63086 4.91785,-1.05185 11.09154,-2.49715 14.8457,-3.82422 1.8537,-0.7142 6.74895,-2.14462 11.0918,-3.55468 2.3151,-0.85971 4.61627,-1.74299 6.90625,-2.67188 1.12472,-0.74578 0.53897,-1.22042 -3.28907,-1.13281 -0.32278,-0.18636 -0.71482,-0.28225 -1.15429,-0.31446 0.96005,-0.1065 1.93776,-0.12957 2.96875,-0.0117 2.39165,0.22207 3.80412,0.22645 4.67383,0.14843 0.31535,-0.13208 0.63631,-0.2537 0.95117,-0.38672 -0.20416,-0.21636 -1.0206,-0.45151 -2.18555,-0.62695 1.18886,0.008 2.37847,0.0179 3.57031,0.0547 0.38266,-0.16355 0.75868,-0.33529 1.14063,-0.5 1.86616,-1.71591 -10.42355,-0.73844 -13.9668,-0.8125 -12.69249,-0.26083 -25.40755,0.0608 -38.08398,-0.71484 -4.50279,0.12228 0.84299,3.40466 -5.67578,1.90039 -3.36715,0.31659 -6.72503,0.39626 -10.13282,0.41015 1.6332,-0.12475 3.19698,-0.30582 4.43164,-0.57812 3.11457,-1.42255 11.88154,-0.26463 3.95508,-2.18164 z m -46.8457,0.85351 c -0.31852,-0.0476 -0.64531,-0.0513 -0.96875,0.01 0.0352,0.0202 0.0514,0.0252 0.0859,0.0449 0.95371,0.41448 1.91024,0.82646 2.86914,1.22852 0.54738,-0.0495 -0.5772,-1.07257 -1.98633,-1.28321 z m 25.0625,0.0274 c -0.0945,-0.0183 -0.23171,-0.014 -0.41602,0.0234 -0.21678,1.33652 1.07749,0.10459 0.41602,-0.0234 z m 26.30078,1.85546 c 0.092,0.0132 0.20557,0.0507 0.34766,0.12696 -0.49344,0.98279 -0.99186,-0.21933 -0.34766,-0.12696 z m -44.06836,0.13672 c 0.39624,-0.0339 1.14091,-0.0378 2.36328,0.0215 -1.60361,0.43229 -3.552,0.0802 -2.36328,-0.0215 z m 54.21875,0.16211 c 0.16188,-0.0404 1.04938,-0.0228 3.2168,0.11914 2.34726,0.64335 -3.70246,0.002 -3.2168,-0.11914 z m -17.54101,0.0918 c 0.40741,-0.0732 0.31629,0.86501 -0.20508,0.10547 0.0788,-0.0594 0.14687,-0.095 0.20508,-0.10547 z m 46.16992,1.22656 c -2.0679,0.69034 -3.88361,1.36741 -4.18164,0.78321 1.50257,-0.15208 2.85902,-0.45915 4.18164,-0.78321 z" />
    </g>
    <path
       style="fill:#002145;fill-opacity:1;stroke:#ffffff;stroke-width:2.87689066;stroke-miterlimit:4;stroke-dasharray:none;stroke-opacity:1"
       d="M 123.96201,247.02166 C 112.44924,244.60139 100.45842,239.76752 90.2343,233.42497 78.357295,226.05704 66.418761,214.52135 58.566518,202.82575 48.424009,187.71891 42.49643,170.88664 40.853886,152.52798 40.610402,149.80654 40.474178,123.51328 40.47337,79.082655 L 40.47207,9.8763453 h 87.72893 87.72891 l -0.003,68.8377097 c -0.001,41.903585 -0.1448,70.496305 -0.36516,73.076715 -2.03319,23.80767 -11.43476,45.48486 -27.33752,63.0321 -14.59039,16.09936 -34.84477,27.71316 -56.15251,32.1978 l -4.0547,0.85339 z m 10.50333,-7.18254 c 7.62413,-1.90156 17.05529,-5.65531 23.97085,-9.54077 24.12637,-13.55524 41.48188,-36.32019 48.04966,-63.02601 2.79526,-11.36604 2.59103,-5.18918 2.71481,-82.107625 l 0.11103,-69.02201 H 128.20104 47.090371 l 0.107971,69.39062 0.10797,69.390615 0.831693,4.60762 c 4.600476,25.48655 16.746426,46.17304 36.387764,61.97419 8.791361,7.07252 19.037321,12.55555 30.589621,16.36976 10.68831,3.52896 12.38396,3.70103 19.34993,1.96361 z"
       id="path1982"
       inkscape:connector-curvature="0"
       sodipodi:nodetypes="ccscsccccccccccsssccccccsscc" />
    <path
       style="fill:#002145;fill-opacity:1;stroke-width:0.36860895"
       d="m 72.997487,76.050485 c -7.859554,-2.06417 -14.751274,-8.90331 -16.740299,-16.61255 -0.492067,-1.90762 -0.584294,-4.94555 -0.584294,-19.25982 v -16.99495 h 6.266327 6.266467 v 17.23246 17.23246 l 0.873795,1.84305 c 3.313787,6.98906 12.58838,8.40948 17.710637,2.71237 2.80069,-3.1152 2.78745,-3.01042 2.78745,-22.13 v -16.89034 h 6.26633 6.26632 v 16.87855 c 0,13.8296 -0.1003,17.27543 -0.55601,19.07552 -2.04154,8.065 -8.84926,14.83698 -17.006111,16.91674 -2.82632,0.72064 -8.807605,0.71883 -11.557996,-0.003 z m 105.514173,-0.8924 c -9.39747,-1.32577 -16.23304,-5.70398 -19.88593,-12.73701 -2.31558,-4.45837 -2.80375,-6.76576 -2.84234,-13.4353 -0.0293,-4.99803 0.0738,-6.05959 0.82322,-8.47799 1.97259,-6.36732 6.19779,-11.38196 11.92342,-14.1508 5.00398,-2.41983 8.09946,-3.19129 13.76004,-3.42937 3.64675,-0.15339 5.58256,-0.0523 8.10029,0.42306 3.70708,0.69987 8.99401,2.60115 9.27585,3.3358 0.14977,0.39011 -1.62123,10.41943 -1.90641,10.79644 -0.0446,0.0596 -1.05602,-0.47923 -2.24662,-1.19732 -3.78719,-2.28406 -6.36901,-2.96656 -11.19577,-2.95948 -4.7553,0.007 -6.2935,0.35851 -9.20243,2.10306 -5.20724,3.12295 -7.18638,9.20619 -5.89714,18.12548 0.6743,4.66518 3.62377,8.41916 8.35399,10.63271 5.33514,2.4966 13.09536,1.41809 19.13752,-2.65968 0.90863,-0.61328 1.78437,-1.11502 1.94584,-1.11502 0.16161,0 0.58248,2.11488 0.93523,4.69975 0.35289,2.58487 0.72097,5.04537 0.81821,5.46778 0.14782,0.64248 -0.18919,0.93224 -2.06244,1.77286 -5.32246,2.38861 -14.04369,3.62198 -19.83453,2.80503 z m -67.17881,-26.16335 v -25.89313 l 10.59755,0.19115 c 11.45629,0.20667 12.8457,0.39168 18.61272,2.47844 2.36211,0.85469 3.49907,1.49454 4.32272,2.43264 4.23787,4.82667 4.60915,12.63841 0.79201,16.66452 -0.53122,0.56033 -1.38063,1.30901 -1.88746,1.66369 -0.90069,0.63033 -0.90487,0.6544 -0.18432,1.06483 1.67542,0.95423 4.66196,4.19703 5.50315,5.97525 1.31376,2.77689 1.83425,6.23291 1.34148,8.90668 -0.85833,4.65673 -3.13267,7.5797 -7.58176,9.74356 -4.28816,2.0856 -5.55636,2.24955 -19.07552,2.46618 l -12.44057,0.19933 z m 21.56359,16.17158 c 2.05757,-0.56203 3.78022,-1.96807 4.67979,-3.81959 1.11035,-2.28546 0.71511,-3.86805 -1.52594,-6.10902 -2.21514,-2.21517 -4.40506,-2.93445 -8.9341,-2.93445 h -3.25068 v 6.63496 6.63496 l 3.77827,-0.003 c 2.07805,-0.001 4.44183,-0.18328 5.25266,-0.4048 z m 0.31861,-22.21791 c 0.669,-0.27954 1.59212,-0.9845 2.05144,-1.56659 0.69645,-0.88246 0.81083,-1.39926 0.68837,-3.1098 -0.29897,-4.17952 -2.26919,-5.50502 -8.18249,-5.50502 h -3.90686 v 5.34482 5.34483 h 4.06652 c 2.62208,0 4.49867,-0.18054 5.28302,-0.50824 z"
       id="path1982-7"
       inkscape:connector-curvature="0"
       sodipodi:nodetypes="ccscccccccscccsccccsccccccccccccccscccscccccccccccscccccscccccccccscccsc" />
    <g
       id="g991"
       transform="matrix(1.7355947,0,0,1.7355947,253.06362,-127.95419)"
       style="fill:#002145;fill-opacity:1;stroke:#fbfbfb;stroke-width:0.67472154;stroke-miterlimit:4;stroke-dasharray:none;stroke-opacity:1">
      <path
         sodipodi:type="inkscape:offset"
         inkscape:radius="0.46184298"
         inkscape:original="M -74.816406 143.24219 C -75.001908 143.35998 -77.219545 148.62797 -79.744141 154.94727 L -84.333984 166.43555 L -85.755859 167.45312 C -87.206859 168.48967 -94.298756 172.12891 -97.910156 173.69141 L -99.912109 174.55859 L -101.72461 172.67969 C -102.72171 171.6468 -103.90894 170.21915 -103.99414 170.2207 C -104.15154 170.2237 -106.5645 174.03973 -106.62891 174.36914 C -106.67791 174.62177 -104.67806 177.40378 -104.47266 177.41016 C -103.53846 177.43916 -93.850169 173.621 -89.230469 171.40234 C -87.738869 170.68598 -86.517578 170.1888 -86.517578 170.29883 C -86.517578 170.40885 -87.887047 173.68858 -89.560547 177.58789 C -91.233947 181.4872 -92.603516 184.76981 -92.603516 184.88281 C -92.603516 184.99583 -92.197072 185.08984 -91.701172 185.08984 C -90.807672 185.08984 -90.758509 185.0227 -86.099609 177.61523 C -80.667908 168.97893 -80.052815 168.05292 -80.291016 168.87109 L -80.458984 169.45312 L -78.527344 168.92578 C -75.927641 168.21555 -71.662397 166.09134 -69.716797 164.53906 L -68.128906 163.27148 L -68.923828 163.09961 C -71.033327 162.6405 -75.036002 163.02135 -77.6875 163.93359 C -78.480999 164.20658 -79.109375 164.30711 -79.109375 164.16016 C -79.109375 164.01522 -77.779145 159.3081 -76.152344 153.70117 C -73.696042 145.23577 -73.258166 143.46636 -73.572266 143.26758 C -74.039766 142.97172 -74.37901 142.96466 -74.816406 143.24219 z "
         style="opacity:1;fill:#002145;fill-opacity:1;stroke:#fbfbfb;stroke-width:0.67472154;stroke-miterlimit:4;stroke-dasharray:none;stroke-opacity:1"
         id="path981"
         d="m -74.195312,142.57812 c -0.309231,-0.006 -0.603339,0.10479 -0.869141,0.27344 -0.126244,0.0802 -0.127037,0.11571 -0.150391,0.14844 -0.02335,0.0327 -0.04063,0.0608 -0.05859,0.0918 -0.03593,0.0619 -0.07303,0.13379 -0.117187,0.22265 -0.08832,0.17773 -0.201775,0.42092 -0.339844,0.72852 -0.276138,0.61519 -0.650258,1.48413 -1.097656,2.54687 -0.894796,2.1255 -2.082524,5.0237 -3.345703,8.18555 l -4.539063,11.36328 -1.3125,0.93945 c -0.644619,0.4603 -2.810463,1.65576 -5.208984,2.88672 -2.399209,1.23133 -5.072488,2.52963 -6.859375,3.30274 l -1.708984,0.74023 -1.589846,-1.64843 c -0.48832,-0.50585 -1.03055,-1.11742 -1.46289,-1.60352 -0.21617,-0.24305 -0.40417,-0.45531 -0.54883,-0.61133 -0.0723,-0.078 -0.13429,-0.14035 -0.18945,-0.19336 -0.0276,-0.0265 -0.0518,-0.05 -0.0879,-0.0781 -0.018,-0.0141 -0.0372,-0.0299 -0.0742,-0.0508 -0.0185,-0.0104 -0.0421,-0.0223 -0.0781,-0.0352 -0.018,-0.006 -0.0392,-0.014 -0.0664,-0.0195 -0.0272,-0.006 -0.1009,-0.008 -0.10156,-0.008 a 0.46188917,0.46188917 0 0 0 -0.002,0 c -0.001,2e-5 -0.10247,0.0104 -0.13671,0.0215 -0.0343,0.0111 -0.0578,0.0244 -0.0781,0.0352 -0.0407,0.0216 -0.0645,0.0392 -0.084,0.0547 -0.039,0.0311 -0.0617,0.0543 -0.084,0.0781 -0.0445,0.0476 -0.0834,0.0953 -0.1289,0.1543 -0.0909,0.1179 -0.2008,0.27346 -0.32813,0.45898 -0.25465,0.37104 -0.57488,0.86201 -0.89258,1.36328 -0.31769,0.50127 -0.63137,1.01105 -0.87305,1.42188 -0.12083,0.20541 -0.22508,0.38563 -0.30273,0.53125 -0.0388,0.0728 -0.0704,0.13631 -0.0977,0.19531 -0.0272,0.059 -0.0502,0.0944 -0.0723,0.20703 -0.0386,0.1988 0.008,0.25151 0.0312,0.31641 0.0227,0.0649 0.0495,0.12072 0.0801,0.18164 0.0612,0.12183 0.1402,0.25902 0.23632,0.41406 0.19226,0.31007 0.44876,0.68657 0.7129,1.05664 0.26413,0.37007 0.53473,0.73249 0.75976,1.00977 0.11252,0.13863 0.21237,0.25372 0.30274,0.34765 0.0452,0.047 0.0864,0.0889 0.13867,0.13086 0.0523,0.0419 0.0667,0.12451 0.33398,0.13281 0.28622,0.009 0.50052,-0.066 0.87695,-0.17578 0.37644,-0.10978 0.85549,-0.267 1.41602,-0.46289 1.12106,-0.39176 2.566798,-0.93705 4.128907,-1.55273 3.124217,-1.23137 6.702977,-2.74222 9.033203,-3.86133 0.677032,-0.32515 1.265327,-0.58315 1.732422,-0.77734 -0.146086,0.35917 -0.311977,0.75881 -0.539063,1.30273 -0.55068,1.319 -1.310235,3.11401 -2.146484,5.0625 -0.837215,1.95086 -1.59988,3.74597 -2.152344,5.07031 -0.276232,0.66217 -0.498374,1.20771 -0.654297,1.59571 -0.07796,0.19399 -0.140632,0.34678 -0.183593,0.46093 -0.02148,0.0571 -0.03709,0.10361 -0.05078,0.14453 -0.0068,0.0205 -0.01314,0.0392 -0.01953,0.0625 -0.0064,0.0233 -0.01953,0.0224 -0.01953,0.14258 0,0.15254 0.07256,0.28048 0.136719,0.35157 0.06415,0.0711 0.122208,0.10589 0.175781,0.13476 0.107145,0.0577 0.204024,0.0849 0.310547,0.10938 0.213045,0.049 0.4631,0.0723 0.740234,0.0723 0.229159,0 0.53704,-0.0129 0.833984,-0.1914 0.296945,-0.17847 0.556668,-0.46114 0.923829,-0.95118 0.734322,-0.98006 1.90487,-2.84305 4.234375,-6.54687 2.715628,-4.3178 4.229892,-6.71067 5.02539,-7.90821 0.03029,-0.0456 0.02215,-0.0298 0.05078,-0.0723 a 0.46188917,0.46188917 0 0 0 0.294921,0.0176 l 1.931641,-0.52735 c 2.701653,-0.73808 6.934302,-2.8413 8.976562,-4.4707 a 0.46188917,0.46188917 0 0 0 0.002,0 l 1.58789,-1.26758 a 0.46188917,0.46188917 0 0 0 -0.191406,-0.8125 l -0.794922,-0.17187 c -2.27998,-0.49622 -6.262405,-0.0982 -9.011719,0.84765 -0.273175,0.094 -0.47375,0.13625 -0.673828,0.18164 0.02761,-0.10295 0.04659,-0.17305 0.08203,-0.30273 0.149482,-0.54692 0.365071,-1.3224 0.632813,-2.26953 0.535484,-1.89427 1.274741,-4.47279 2.087891,-7.27539 1.228504,-4.23392 1.952596,-6.79185 2.333984,-8.33399 0.190694,-0.77106 0.295911,-1.2841 0.335938,-1.65429 0.02001,-0.1851 0.02822,-0.33474 0.0039,-0.48828 -0.02431,-0.15355 -0.100455,-0.35597 -0.291016,-0.47657 -0.275003,-0.17403 -0.55991,-0.29249 -0.86914,-0.29883 z" />
      <path
         sodipodi:type="inkscape:offset"
         inkscape:radius="0.27965763"
         inkscape:original="M -104.33203 167.09766 C -104.86343 167.09766 -105.06797 167.415 -105.82227 169.41211 C -106.30318 170.68542 -107.03958 172.41325 -107.45898 173.25 L -108.2207 174.76953 L -107.49023 174.76562 C -106.86383 174.76163 -106.53914 174.42881 -105.23633 172.4375 C -103.83453 170.29484 -103.71484 169.99206 -103.71484 168.60352 C -103.71484 167.20218 -103.75913 167.09766 -104.33203 167.09766 z "
         style="fill:#002145;fill-opacity:1;stroke:#fbfbfb;stroke-width:0.67472154;stroke-miterlimit:4;stroke-dasharray:none;stroke-opacity:1"
         id="path979"
         d="m -104.33203,166.81836 c -0.16069,0 -0.33294,0.0265 -0.49024,0.11719 -0.15729,0.0907 -0.28591,0.23305 -0.40625,0.41992 -0.24067,0.37373 -0.47709,0.95524 -0.85546,1.95703 -0.47712,1.26326 -1.21595,2.99639 -1.625,3.8125 l -0.76172,1.51953 a 0.2796856,0.2796856 0 0 0 0.25195,0.4043 l 0.73047,-0.004 c 0.36242,-0.002 0.71852,-0.13887 1.07226,-0.5039 0.35375,-0.36504 0.76074,-0.95259 1.41407,-1.95118 0.7022,-1.07333 1.09152,-1.69104 1.3125,-2.24804 0.22098,-0.55701 0.2539,-1.03598 0.2539,-1.73828 0,-0.70362 0.0107,-1.07823 -0.11523,-1.38477 -0.063,-0.15327 -0.19826,-0.29054 -0.3457,-0.3457 -0.14745,-0.0552 -0.28382,-0.0547 -0.43555,-0.0547 z" />
      <path
         sodipodi:type="inkscape:offset"
         inkscape:radius="0.5973717"
         inkscape:original="M -32.701172 106.44531 C -32.860872 106.55222 -35.466036 114.43909 -38.490234 123.9707 L -43.988281 141.30078 L -45.078125 142.22461 C -45.677827 142.73225 -46.768354 143.70736 -47.501953 144.39258 C -48.235452 145.0778 -49.783108 146.25583 -50.941406 147.00977 C -52.099607 147.76372 -54.02445 149.08349 -55.21875 149.94336 L -57.390625 151.50586 L -59.78125 149.77734 C -61.096052 148.82607 -62.563575 147.55078 -62.609375 147.55078 C -62.655375 147.55078 -63.029996 148.76291 -63.529297 149.79492 L -64.414062 151.66992 L -62.966797 152.82812 C -62.313697 153.39329 -61.578983 153.92282 -61.333984 154.00586 C -61.088983 154.08886 -59.897799 153.76634 -58.6875 153.28906 C -56.1147 152.27441 -48.766443 148.70642 -47.152344 147.6875 C -46.538945 147.30025 -46.037109 147.09378 -46.037109 147.22852 C -46.037109 147.36325 -48.776002 153.51634 -52.125 160.9043 C -58.149801 174.19523 -58.356026 174.74986 -57.265625 174.76562 C -57.111527 174.76763 -56.788577 174.62134 -56.546875 174.43945 C -56.305175 174.25755 -52.71406 167.23392 -48.568359 158.83008 C -44.422661 150.42627 -40.96346 143.54883 -40.880859 143.54883 C -40.797859 143.54883 -40.913266 143.90074 -41.134766 144.33008 C -41.356765 144.75942 -41.539062 145.17436 -41.539062 145.25195 C -41.539062 145.55331 -38.025192 144.09677 -36.087891 142.99219 C -34.118492 141.86929 -30.162109 138.48999 -30.162109 137.93164 C -30.162109 137.75351 -31.104252 137.70374 -32.873047 137.78516 C -34.988547 137.88256 -35.961371 138.06186 -37.292969 138.60352 C -38.231769 138.98543 -39.051033 139.24591 -39.115234 139.18164 C -39.179234 139.11734 -37.408688 131.78879 -35.179688 122.89648 C -31.809393 109.45144 -31.190507 106.68859 -31.503906 106.49023 C -31.961008 106.20091 -32.315476 106.18705 -32.701172 106.44531 z "
         style="opacity:1;fill:#002145;fill-opacity:1;stroke:#fbfbfb;stroke-width:0.67472154;stroke-miterlimit:4;stroke-dasharray:none;stroke-opacity:1"
         id="path975"
         d="m -32.107422,105.66602 c -0.333507,-0.0126 -0.658528,0.10425 -0.925781,0.2832 -0.139842,0.0936 -0.149108,0.1382 -0.171875,0.17187 -0.02277,0.0337 -0.03571,0.057 -0.04687,0.0781 -0.02234,0.0422 -0.03689,0.0781 -0.05469,0.11914 -0.0356,0.0821 -0.07503,0.18156 -0.123047,0.30859 -0.09604,0.25407 -0.224904,0.61008 -0.382812,1.06446 -0.315816,0.90874 -0.7502,2.20498 -1.275391,3.79492 -1.05038,3.17987 -2.459967,7.53702 -3.972656,12.30469 l -5.445312,17.16601 -0.958985,0.8125 c -0.615054,0.52064 -1.702497,1.49172 -2.445312,2.18555 -0.676771,0.63222 -2.233665,1.82323 -3.357422,2.55469 -1.171714,0.76274 -3.094705,2.08087 -4.300781,2.94921 l -1.822266,1.31055 -2.041016,-1.47656 c -0.640203,-0.46319 -1.327965,-1.01442 -1.861328,-1.44922 -0.266681,-0.2174 -0.495039,-0.40455 -0.662109,-0.54102 -0.08353,-0.0682 -0.152196,-0.12323 -0.207031,-0.16601 -0.02742,-0.0214 -0.04935,-0.0403 -0.07813,-0.0606 -0.01439,-0.0101 -0.02927,-0.0199 -0.05859,-0.0371 -0.01466,-0.009 -0.03116,-0.0197 -0.06641,-0.0352 -0.01762,-0.008 -0.07564,-0.0252 -0.07617,-0.0254 -5.31e-4,-1.6e-4 -0.167611,-0.0254 -0.167969,-0.0254 -3.59e-4,0 -0.206632,0.037 -0.207031,0.0371 -4e-4,1.5e-4 -0.126514,0.0642 -0.126953,0.0645 -8.79e-4,5.8e-4 -0.09383,0.0754 -0.117188,0.10156 -0.04671,0.0524 -0.06228,0.0819 -0.07617,0.10547 -0.02779,0.0471 -0.03823,0.0733 -0.05078,0.10156 -0.02511,0.0565 -0.04604,0.11079 -0.07227,0.17969 -0.05244,0.13779 -0.119493,0.32034 -0.199218,0.5332 -0.159452,0.42572 -0.372196,0.97279 -0.607422,1.45899 a 0.59743143,0.59743143 0 0 0 -0.0039,0.004 l -0.884766,1.875 a 0.59743143,0.59743143 0 0 0 0.167969,0.72266 l 1.447265,1.1582 c 0.334948,0.28888 0.685081,0.56565 0.992188,0.78711 0.312801,0.22557 0.506098,0.38307 0.822265,0.49024 0.311932,0.10567 0.432362,0.045 0.63086,0.0137 0.198498,-0.0313 0.423935,-0.0836 0.677734,-0.15235 0.507598,-0.13746 1.123397,-0.34156 1.748047,-0.58789 2.577295,-1.01642 9.282651,-4.2636 11.308594,-5.48242 -0.303885,0.69707 -0.700366,1.59326 -1.210938,2.74024 -1.102528,2.47676 -2.624793,5.86173 -4.298828,9.55468 -3.012632,6.64598 -4.567043,10.09538 -5.253906,11.94727 -0.343432,0.92594 -0.51698,1.41233 -0.435547,1.94726 0.04072,0.26747 0.251047,0.57513 0.492187,0.69336 0.241141,0.11824 0.432001,0.11485 0.59375,0.11719 0.271478,0.004 0.410188,-0.0705 0.582032,-0.14844 0.171843,-0.0779 0.342397,-0.17728 0.503906,-0.29882 0.121045,-0.0911 0.124972,-0.12132 0.152344,-0.15821 0.02737,-0.0369 0.05128,-0.0704 0.07617,-0.10937 0.04979,-0.0779 0.104436,-0.17332 0.171875,-0.29102 0.134877,-0.23539 0.313954,-0.56015 0.533203,-0.9707 0.438497,-0.82109 1.039621,-1.98007 1.763672,-3.39649 1.448102,-2.83283 3.383116,-6.6924 5.457031,-10.89648 2.072288,-4.20077 3.972956,-8.01938 5.365234,-10.78711 0.51615,-1.02606 0.875481,-1.72745 1.234375,-2.42969 0.03711,-0.002 0.09354,0.006 0.126953,0.002 0.167602,-0.0221 0.327423,-0.0662 0.523438,-0.12696 0.392029,-0.12144 0.901785,-0.31413 1.472656,-0.55078 1.141742,-0.47329 2.512072,-1.11615 3.517578,-1.68945 1.05917,-0.60391 2.539851,-1.73475 3.794922,-2.80664 0.627536,-0.53595 1.192797,-1.05408 1.615235,-1.48828 0.211218,-0.21711 0.386264,-0.4125 0.523437,-0.59375 0.137173,-0.18126 0.294922,-0.26888 0.294922,-0.69141 0,-0.28556 -0.202979,-0.49263 -0.324219,-0.56836 -0.121239,-0.0757 -0.213946,-0.0984 -0.30664,-0.12109 -0.185389,-0.0455 -0.379392,-0.0648 -0.626954,-0.0781 -0.495122,-0.0266 -1.183275,-0.0178 -2.078125,0.0234 -2.140741,0.0986 -3.234146,0.3007 -4.617187,0.86328 -0.313616,0.12758 -0.562972,0.21035 -0.820313,0.30078 0.02899,-0.12906 0.04435,-0.2019 0.08008,-0.35742 0.19087,-0.83092 0.475699,-2.02929 0.832031,-3.50391 0.712663,-2.94923 1.712012,-7.00442 2.826172,-11.44921 1.685397,-6.72352 2.682726,-10.77364 3.222656,-13.1836 0.269965,-1.20498 0.424443,-1.99664 0.496094,-2.53125 0.03583,-0.2673 0.05318,-0.46807 0.04297,-0.6582 -0.01021,-0.19014 -0.0042,-0.46551 -0.345703,-0.68164 -0.28387,-0.17968 -0.590321,-0.30768 -0.923828,-0.32031 z" />
      <path
         sodipodi:type="inkscape:offset"
         inkscape:radius="0.32208964"
         inkscape:original="M -61.767578 142.28125 C -61.819578 142.22955 -62.225221 142.37546 -62.669922 142.60547 C -63.51362 143.04175 -63.534272 143.09102 -64.451172 146.85742 C -64.699171 147.87606 -65.405782 149.7201 -66.021484 150.95703 C -66.637084 152.19396 -67.322621 153.64332 -67.544922 154.17578 L -67.949219 155.14258 L -66.820312 154.75781 C -65.721212 154.38332 -65.64929 154.285 -64.087891 151.01172 C -62.73999 148.18593 -62.420877 147.23082 -62.080078 145.01367 C -61.85718 143.56302 -61.715878 142.33292 -61.767578 142.28125 z "
         style="fill:#002145;fill-opacity:1;stroke:#fbfbfb;stroke-width:0.67472154;stroke-miterlimit:4;stroke-dasharray:none;stroke-opacity:1"
         id="path826-3-9-6"
         d="m -61.792969,141.94922 c -0.05509,-0.002 -0.09444,0.004 -0.134765,0.0117 -0.08065,0.0154 -0.160589,0.0414 -0.251954,0.0742 -0.182729,0.0657 -0.40551,0.16456 -0.638671,0.28515 -0.425291,0.21992 -0.76479,0.44768 -1.011719,1.03711 -0.246929,0.58943 -0.475089,1.5404 -0.933594,3.42383 -0.23587,0.96882 -0.944272,2.82259 -1.546875,4.0332 -0.617818,1.24139 -1.298307,2.67838 -1.53125,3.23633 l -0.404297,0.9668 a 0.32212185,0.32212185 0 0 0 0.400391,0.42969 l 1.128906,-0.38477 c 0.555665,-0.18933 0.963569,-0.37118 1.349609,-0.90039 0.386041,-0.52921 0.789326,-1.37448 1.570313,-3.01172 1.351538,-2.83341 1.691881,-3.85463 2.035156,-6.08789 0.111973,-0.72873 0.204298,-1.40095 0.261719,-1.90234 0.02871,-0.2507 0.04851,-0.45848 0.05859,-0.61328 0.005,-0.0774 0.0068,-0.14001 0.0059,-0.19727 -4.48e-4,-0.0286 -7.94e-4,-0.0565 -0.0059,-0.0918 -0.0025,-0.0177 -0.0061,-0.0366 -0.01563,-0.0664 -0.0048,-0.0149 -0.0098,-0.0322 -0.02148,-0.0547 -0.0058,-0.0112 -0.01378,-0.0232 -0.02344,-0.0371 -0.0097,-0.0139 -0.03671,-0.0465 -0.03711,-0.0469 a 0.32212185,0.32212185 0 0 0 -0.002,0 c -0.107598,-0.10697 -0.196862,-0.10186 -0.251953,-0.10351 z" />
    </g>
  </g>
</svg>
